<?xml version="1.0" encoding="utf-8" standalone="no"?>
<!DOCTYPE svg PUBLIC "-//W3C//DTD SVG 1.1//EN"
  "http://www.w3.org/Graphics/SVG/1.1/DTD/svg11.dtd">
<!-- Created with matplotlib (https://matplotlib.org/) -->
<svg height="576pt" version="1.1" viewBox="0 0 1080 576" width="1080pt" xmlns="http://www.w3.org/2000/svg" xmlns:xlink="http://www.w3.org/1999/xlink">
 <defs>
  <style type="text/css">
*{stroke-linecap:butt;stroke-linejoin:round;}
  </style>
 </defs>
 <g id="figure_1">
  <g id="patch_1">
   <path d="M 0 576 
L 1080 576 
L 1080 0 
L 0 0 
z
" style="fill:#ffffff;"/>
  </g>
  <g id="axes_1">
   <g id="patch_2">
    <path d="M 135 504 
L 972 504 
L 972 69.12 
L 135 69.12 
z
" style="fill:#e5e5e5;"/>
   </g>
   <g id="matplotlib.axis_1">
    <g id="xtick_1">
     <g id="line2d_1"/>
     <g id="text_1">
      <!-- A -->
      <defs>
       <path d="M -0.140625 0 
L 27.34375 71.578125 
L 37.546875 71.578125 
L 66.84375 0 
L 56.0625 0 
L 47.703125 21.6875 
L 17.78125 21.6875 
L 9.90625 0 
z
M 20.515625 29.390625 
L 44.78125 29.390625 
L 37.3125 49.21875 
Q 33.890625 58.25 32.234375 64.0625 
Q 30.859375 57.171875 28.375 50.390625 
z
" id="ArialMT-65"/>
      </defs>
      <g style="fill:#555555;" transform="translate(151.922813 519.589375)scale(0.12 -0.12)">
       <use xlink:href="#ArialMT-65"/>
      </g>
     </g>
    </g>
    <g id="xtick_2">
     <g id="line2d_2"/>
     <g id="text_2">
      <!-- C -->
      <defs>
       <path d="M 58.796875 25.09375 
L 68.265625 22.703125 
Q 65.28125 11.03125 57.546875 4.90625 
Q 49.8125 -1.21875 38.625 -1.21875 
Q 27.046875 -1.21875 19.796875 3.484375 
Q 12.546875 8.203125 8.765625 17.140625 
Q 4.984375 26.078125 4.984375 36.328125 
Q 4.984375 47.515625 9.25 55.828125 
Q 13.53125 64.15625 21.40625 68.46875 
Q 29.296875 72.796875 38.765625 72.796875 
Q 49.515625 72.796875 56.828125 67.328125 
Q 64.15625 61.859375 67.046875 51.953125 
L 57.71875 49.75 
Q 55.21875 57.5625 50.484375 61.125 
Q 45.75 64.703125 38.578125 64.703125 
Q 30.328125 64.703125 24.78125 60.734375 
Q 19.234375 56.78125 16.984375 50.109375 
Q 14.75 43.453125 14.75 36.375 
Q 14.75 27.25 17.40625 20.4375 
Q 20.0625 13.625 25.671875 10.25 
Q 31.296875 6.890625 37.84375 6.890625 
Q 45.796875 6.890625 51.3125 11.46875 
Q 56.84375 16.0625 58.796875 25.09375 
z
" id="ArialMT-67"/>
      </defs>
      <g style="fill:#555555;" transform="translate(193.441875 519.589375)scale(0.12 -0.12)">
       <use xlink:href="#ArialMT-67"/>
      </g>
     </g>
    </g>
    <g id="xtick_3">
     <g id="line2d_3"/>
     <g id="text_3">
      <!-- D -->
      <defs>
       <path d="M 7.71875 0 
L 7.71875 71.578125 
L 32.375 71.578125 
Q 40.71875 71.578125 45.125 70.5625 
Q 51.265625 69.140625 55.609375 65.4375 
Q 61.28125 60.640625 64.078125 53.1875 
Q 66.890625 45.75 66.890625 36.1875 
Q 66.890625 28.03125 64.984375 21.734375 
Q 63.09375 15.4375 60.109375 11.296875 
Q 57.125 7.171875 53.578125 4.796875 
Q 50.046875 2.4375 45.046875 1.21875 
Q 40.046875 0 33.546875 0 
z
M 17.1875 8.453125 
L 32.46875 8.453125 
Q 39.546875 8.453125 43.578125 9.765625 
Q 47.609375 11.078125 50 13.484375 
Q 53.375 16.84375 55.25 22.53125 
Q 57.125 28.21875 57.125 36.328125 
Q 57.125 47.5625 53.4375 53.59375 
Q 49.75 59.625 44.484375 61.671875 
Q 40.671875 63.140625 32.234375 63.140625 
L 17.1875 63.140625 
z
" id="ArialMT-68"/>
      </defs>
      <g style="fill:#555555;" transform="translate(235.291875 519.589375)scale(0.12 -0.12)">
       <use xlink:href="#ArialMT-68"/>
      </g>
     </g>
    </g>
    <g id="xtick_4">
     <g id="line2d_4"/>
     <g id="text_4">
      <!-- E -->
      <defs>
       <path d="M 7.90625 0 
L 7.90625 71.578125 
L 59.671875 71.578125 
L 59.671875 63.140625 
L 17.390625 63.140625 
L 17.390625 41.21875 
L 56.984375 41.21875 
L 56.984375 32.8125 
L 17.390625 32.8125 
L 17.390625 8.453125 
L 61.328125 8.453125 
L 61.328125 0 
z
" id="ArialMT-69"/>
      </defs>
      <g style="fill:#555555;" transform="translate(277.472813 519.589375)scale(0.12 -0.12)">
       <use xlink:href="#ArialMT-69"/>
      </g>
     </g>
    </g>
    <g id="xtick_5">
     <g id="line2d_5"/>
     <g id="text_5">
      <!-- F -->
      <defs>
       <path d="M 8.203125 0 
L 8.203125 71.578125 
L 56.5 71.578125 
L 56.5 63.140625 
L 17.671875 63.140625 
L 17.671875 40.96875 
L 51.265625 40.96875 
L 51.265625 32.515625 
L 17.671875 32.515625 
L 17.671875 0 
z
" id="ArialMT-70"/>
      </defs>
      <g style="fill:#555555;" transform="translate(319.660313 519.589375)scale(0.12 -0.12)">
       <use xlink:href="#ArialMT-70"/>
      </g>
     </g>
    </g>
    <g id="xtick_6">
     <g id="line2d_6"/>
     <g id="text_6">
      <!-- G -->
      <defs>
       <path d="M 41.21875 28.078125 
L 41.21875 36.46875 
L 71.53125 36.53125 
L 71.53125 9.96875 
Q 64.546875 4.390625 57.125 1.578125 
Q 49.703125 -1.21875 41.890625 -1.21875 
Q 31.34375 -1.21875 22.71875 3.296875 
Q 14.109375 7.8125 9.71875 16.359375 
Q 5.328125 24.90625 5.328125 35.453125 
Q 5.328125 45.90625 9.6875 54.953125 
Q 14.0625 64.015625 22.265625 68.40625 
Q 30.46875 72.796875 41.15625 72.796875 
Q 48.921875 72.796875 55.1875 70.28125 
Q 61.46875 67.78125 65.03125 63.28125 
Q 68.609375 58.796875 70.453125 51.5625 
L 61.921875 49.21875 
Q 60.296875 54.6875 57.90625 57.8125 
Q 55.515625 60.9375 51.0625 62.8125 
Q 46.625 64.703125 41.21875 64.703125 
Q 34.71875 64.703125 29.984375 62.71875 
Q 25.25 60.75 22.34375 57.515625 
Q 19.4375 54.296875 17.828125 50.4375 
Q 15.09375 43.796875 15.09375 36.03125 
Q 15.09375 26.46875 18.390625 20.015625 
Q 21.6875 13.578125 27.984375 10.453125 
Q 34.28125 7.328125 41.359375 7.328125 
Q 47.515625 7.328125 53.375 9.6875 
Q 59.234375 12.0625 62.25 14.75 
L 62.25 28.078125 
z
" id="ArialMT-71"/>
      </defs>
      <g style="fill:#555555;" transform="translate(360.508125 519.589375)scale(0.12 -0.12)">
       <use xlink:href="#ArialMT-71"/>
      </g>
     </g>
    </g>
    <g id="xtick_7">
     <g id="line2d_7"/>
     <g id="text_7">
      <!-- H -->
      <defs>
       <path d="M 8.015625 0 
L 8.015625 71.578125 
L 17.484375 71.578125 
L 17.484375 42.1875 
L 54.6875 42.1875 
L 54.6875 71.578125 
L 64.15625 71.578125 
L 64.15625 0 
L 54.6875 0 
L 54.6875 33.734375 
L 17.484375 33.734375 
L 17.484375 0 
z
" id="ArialMT-72"/>
      </defs>
      <g style="fill:#555555;" transform="translate(402.691875 519.589375)scale(0.12 -0.12)">
       <use xlink:href="#ArialMT-72"/>
      </g>
     </g>
    </g>
    <g id="xtick_8">
     <g id="line2d_8"/>
     <g id="text_8">
      <!-- I -->
      <defs>
       <path d="M 9.328125 0 
L 9.328125 71.578125 
L 18.796875 71.578125 
L 18.796875 0 
z
" id="ArialMT-73"/>
      </defs>
      <g style="fill:#555555;" transform="translate(447.208125 519.589375)scale(0.12 -0.12)">
       <use xlink:href="#ArialMT-73"/>
      </g>
     </g>
    </g>
    <g id="xtick_9">
     <g id="line2d_9"/>
     <g id="text_9">
      <!-- K -->
      <defs>
       <path d="M 7.328125 0 
L 7.328125 71.578125 
L 16.796875 71.578125 
L 16.796875 36.078125 
L 52.34375 71.578125 
L 65.1875 71.578125 
L 35.15625 42.578125 
L 66.5 0 
L 54 0 
L 28.515625 36.234375 
L 16.796875 24.8125 
L 16.796875 0 
z
" id="ArialMT-75"/>
      </defs>
      <g style="fill:#555555;" transform="translate(486.722813 519.589375)scale(0.12 -0.12)">
       <use xlink:href="#ArialMT-75"/>
      </g>
     </g>
    </g>
    <g id="xtick_10">
     <g id="line2d_10"/>
     <g id="text_10">
      <!-- L -->
      <defs>
       <path d="M 7.328125 0 
L 7.328125 71.578125 
L 16.796875 71.578125 
L 16.796875 8.453125 
L 52.046875 8.453125 
L 52.046875 0 
z
" id="ArialMT-76"/>
      </defs>
      <g style="fill:#555555;" transform="translate(529.238438 519.589375)scale(0.12 -0.12)">
       <use xlink:href="#ArialMT-76"/>
      </g>
     </g>
    </g>
    <g id="xtick_11">
     <g id="line2d_11"/>
     <g id="text_11">
      <!-- M -->
      <defs>
       <path d="M 7.421875 0 
L 7.421875 71.578125 
L 21.6875 71.578125 
L 38.625 20.90625 
Q 40.96875 13.8125 42.046875 10.296875 
Q 43.265625 14.203125 45.84375 21.78125 
L 62.984375 71.578125 
L 75.734375 71.578125 
L 75.734375 0 
L 66.609375 0 
L 66.609375 59.90625 
L 45.796875 0 
L 37.25 0 
L 16.546875 60.9375 
L 16.546875 0 
z
" id="ArialMT-77"/>
      </defs>
      <g style="fill:#555555;" transform="translate(569.427187 519.589375)scale(0.12 -0.12)">
       <use xlink:href="#ArialMT-77"/>
      </g>
     </g>
    </g>
    <g id="xtick_12">
     <g id="line2d_12"/>
     <g id="text_12">
      <!-- N -->
      <defs>
       <path d="M 7.625 0 
L 7.625 71.578125 
L 17.328125 71.578125 
L 54.9375 15.375 
L 54.9375 71.578125 
L 64.015625 71.578125 
L 64.015625 0 
L 54.296875 0 
L 16.703125 56.25 
L 16.703125 0 
z
" id="ArialMT-78"/>
      </defs>
      <g style="fill:#555555;" transform="translate(611.941875 519.589375)scale(0.12 -0.12)">
       <use xlink:href="#ArialMT-78"/>
      </g>
     </g>
    </g>
    <g id="xtick_13">
     <g id="line2d_13"/>
     <g id="text_13">
      <!-- P -->
      <defs>
       <path d="M 7.71875 0 
L 7.71875 71.578125 
L 34.71875 71.578125 
Q 41.84375 71.578125 45.609375 70.90625 
Q 50.875 70.015625 54.4375 67.546875 
Q 58.015625 65.09375 60.1875 60.640625 
Q 62.359375 56.203125 62.359375 50.875 
Q 62.359375 41.75 56.546875 35.421875 
Q 50.734375 29.109375 35.546875 29.109375 
L 17.1875 29.109375 
L 17.1875 0 
z
M 17.1875 37.546875 
L 35.6875 37.546875 
Q 44.875 37.546875 48.734375 40.96875 
Q 52.59375 44.390625 52.59375 50.59375 
Q 52.59375 55.078125 50.3125 58.265625 
Q 48.046875 61.46875 44.34375 62.5 
Q 41.9375 63.140625 35.5 63.140625 
L 17.1875 63.140625 
z
" id="ArialMT-80"/>
      </defs>
      <g style="fill:#555555;" transform="translate(654.122813 519.589375)scale(0.12 -0.12)">
       <use xlink:href="#ArialMT-80"/>
      </g>
     </g>
    </g>
    <g id="xtick_14">
     <g id="line2d_14"/>
     <g id="text_14">
      <!-- Q -->
      <defs>
       <path d="M 61.96875 7.671875 
Q 68.5625 3.125 74.125 1.03125 
L 71.34375 -5.5625 
Q 63.625 -2.78125 55.953125 3.21875 
Q 48 -1.21875 38.375 -1.21875 
Q 28.65625 -1.21875 20.75 3.46875 
Q 12.84375 8.15625 8.5625 16.640625 
Q 4.296875 25.140625 4.296875 35.796875 
Q 4.296875 46.390625 8.59375 55.078125 
Q 12.890625 63.765625 20.828125 68.3125 
Q 28.765625 72.859375 38.578125 72.859375 
Q 48.484375 72.859375 56.4375 68.140625 
Q 64.40625 63.421875 68.578125 54.953125 
Q 72.75 46.484375 72.75 35.84375 
Q 72.75 27 70.0625 19.9375 
Q 67.390625 12.890625 61.96875 7.671875 
z
M 41.109375 19.78125 
Q 49.3125 17.484375 54.640625 12.9375 
Q 62.984375 20.5625 62.984375 35.84375 
Q 62.984375 44.53125 60.03125 51.015625 
Q 57.078125 57.515625 51.390625 61.109375 
Q 45.703125 64.703125 38.625 64.703125 
Q 28.03125 64.703125 21.046875 57.453125 
Q 14.0625 50.203125 14.0625 35.796875 
Q 14.0625 21.828125 20.96875 14.359375 
Q 27.875 6.890625 38.625 6.890625 
Q 43.703125 6.890625 48.1875 8.796875 
Q 43.75 11.671875 38.8125 12.890625 
z
" id="ArialMT-81"/>
      </defs>
      <g style="fill:#555555;" transform="translate(695.308125 519.589375)scale(0.12 -0.12)">
       <use xlink:href="#ArialMT-81"/>
      </g>
     </g>
    </g>
    <g id="xtick_15">
     <g id="line2d_15"/>
     <g id="text_15">
      <!-- R -->
      <defs>
       <path d="M 7.859375 0 
L 7.859375 71.578125 
L 39.59375 71.578125 
Q 49.171875 71.578125 54.140625 69.640625 
Q 59.125 67.71875 62.109375 62.828125 
Q 65.09375 57.953125 65.09375 52.046875 
Q 65.09375 44.4375 60.15625 39.203125 
Q 55.21875 33.984375 44.921875 32.5625 
Q 48.6875 30.765625 50.640625 29 
Q 54.78125 25.203125 58.5 19.484375 
L 70.953125 0 
L 59.03125 0 
L 49.5625 14.890625 
Q 45.40625 21.34375 42.71875 24.75 
Q 40.046875 28.171875 37.921875 29.53125 
Q 35.796875 30.90625 33.59375 31.453125 
Q 31.984375 31.78125 28.328125 31.78125 
L 17.328125 31.78125 
L 17.328125 0 
z
M 17.328125 39.984375 
L 37.703125 39.984375 
Q 44.1875 39.984375 47.84375 41.328125 
Q 51.515625 42.671875 53.421875 45.625 
Q 55.328125 48.578125 55.328125 52.046875 
Q 55.328125 57.125 51.640625 60.390625 
Q 47.953125 63.671875 39.984375 63.671875 
L 17.328125 63.671875 
z
" id="ArialMT-82"/>
      </defs>
      <g style="fill:#555555;" transform="translate(737.491875 519.589375)scale(0.12 -0.12)">
       <use xlink:href="#ArialMT-82"/>
      </g>
     </g>
    </g>
    <g id="xtick_16">
     <g id="line2d_16"/>
     <g id="text_16">
      <!-- S -->
      <defs>
       <path d="M 4.5 23 
L 13.421875 23.78125 
Q 14.0625 18.40625 16.375 14.96875 
Q 18.703125 11.53125 23.578125 9.40625 
Q 28.46875 7.28125 34.578125 7.28125 
Q 39.984375 7.28125 44.140625 8.890625 
Q 48.296875 10.5 50.3125 13.296875 
Q 52.34375 16.109375 52.34375 19.4375 
Q 52.34375 22.796875 50.390625 25.3125 
Q 48.4375 27.828125 43.953125 29.546875 
Q 41.0625 30.671875 31.203125 33.03125 
Q 21.34375 35.40625 17.390625 37.5 
Q 12.25 40.1875 9.734375 44.15625 
Q 7.234375 48.140625 7.234375 53.078125 
Q 7.234375 58.5 10.296875 63.203125 
Q 13.375 67.921875 19.28125 70.359375 
Q 25.203125 72.796875 32.421875 72.796875 
Q 40.375 72.796875 46.453125 70.234375 
Q 52.546875 67.671875 55.8125 62.6875 
Q 59.078125 57.71875 59.328125 51.421875 
L 50.25 50.734375 
Q 49.515625 57.515625 45.28125 60.984375 
Q 41.0625 64.453125 32.8125 64.453125 
Q 24.21875 64.453125 20.28125 61.296875 
Q 16.359375 58.15625 16.359375 53.71875 
Q 16.359375 49.859375 19.140625 47.359375 
Q 21.875 44.875 33.421875 42.265625 
Q 44.96875 39.65625 49.265625 37.703125 
Q 55.515625 34.8125 58.484375 30.390625 
Q 61.46875 25.984375 61.46875 20.21875 
Q 61.46875 14.5 58.203125 9.4375 
Q 54.9375 4.390625 48.796875 1.578125 
Q 42.671875 -1.21875 35.015625 -1.21875 
Q 25.296875 -1.21875 18.71875 1.609375 
Q 12.15625 4.4375 8.421875 10.125 
Q 4.6875 15.828125 4.5 23 
z
" id="ArialMT-83"/>
      </defs>
      <g style="fill:#555555;" transform="translate(779.672812 519.589375)scale(0.12 -0.12)">
       <use xlink:href="#ArialMT-83"/>
      </g>
     </g>
    </g>
    <g id="xtick_17">
     <g id="line2d_17"/>
     <g id="text_17">
      <!-- T -->
      <defs>
       <path d="M 25.921875 0 
L 25.921875 63.140625 
L 2.34375 63.140625 
L 2.34375 71.578125 
L 59.078125 71.578125 
L 59.078125 63.140625 
L 35.40625 63.140625 
L 35.40625 0 
z
" id="ArialMT-84"/>
      </defs>
      <g style="fill:#555555;" transform="translate(821.860313 519.589375)scale(0.12 -0.12)">
       <use xlink:href="#ArialMT-84"/>
      </g>
     </g>
    </g>
    <g id="xtick_18">
     <g id="line2d_18"/>
     <g id="text_18">
      <!-- V -->
      <defs>
       <path d="M 28.171875 0 
L 0.4375 71.578125 
L 10.6875 71.578125 
L 29.296875 19.578125 
Q 31.546875 13.328125 33.0625 7.859375 
Q 34.71875 13.71875 36.921875 19.578125 
L 56.25 71.578125 
L 65.921875 71.578125 
L 37.890625 0 
z
" id="ArialMT-86"/>
      </defs>
      <g style="fill:#555555;" transform="translate(863.372813 519.589375)scale(0.12 -0.12)">
       <use xlink:href="#ArialMT-86"/>
      </g>
     </g>
    </g>
    <g id="xtick_19">
     <g id="line2d_19"/>
     <g id="text_19">
      <!-- W -->
      <defs>
       <path d="M 20.21875 0 
L 1.21875 71.578125 
L 10.9375 71.578125 
L 21.828125 24.65625 
Q 23.578125 17.28125 24.859375 10.015625 
Q 27.59375 21.484375 28.078125 23.25 
L 41.703125 71.578125 
L 53.125 71.578125 
L 63.375 35.359375 
Q 67.234375 21.875 68.953125 10.015625 
Q 70.3125 16.796875 72.515625 25.59375 
L 83.734375 71.578125 
L 93.265625 71.578125 
L 73.640625 0 
L 64.5 0 
L 49.421875 54.546875 
Q 47.515625 61.375 47.171875 62.9375 
Q 46.046875 58.015625 45.0625 54.546875 
L 29.890625 0 
z
" id="ArialMT-87"/>
      </defs>
      <g style="fill:#555555;" transform="translate(903.561563 519.589375)scale(0.12 -0.12)">
       <use xlink:href="#ArialMT-87"/>
      </g>
     </g>
    </g>
    <g id="xtick_20">
     <g id="line2d_20"/>
     <g id="text_20">
      <!-- Y -->
      <defs>
       <path d="M 27.875 0 
L 27.875 30.328125 
L 0.296875 71.578125 
L 11.8125 71.578125 
L 25.921875 50 
Q 29.828125 43.953125 33.203125 37.890625 
Q 36.421875 43.5 41.015625 50.53125 
L 54.890625 71.578125 
L 65.921875 71.578125 
L 37.359375 30.328125 
L 37.359375 0 
z
" id="ArialMT-89"/>
      </defs>
      <g style="fill:#555555;" transform="translate(947.072813 519.589375)scale(0.12 -0.12)">
       <use xlink:href="#ArialMT-89"/>
      </g>
     </g>
    </g>
   </g>
   <g id="matplotlib.axis_2">
    <g id="ytick_1">
     <g id="line2d_21">
      <path clip-path="url(#p9198906603)" d="M 135 432.221746 
L 972 432.221746 
" style="fill:none;stroke:#ffffff;stroke-linecap:round;"/>
     </g>
     <g id="line2d_22"/>
     <g id="text_21">
      <!-- 0 -->
      <defs>
       <path d="M 4.15625 35.296875 
Q 4.15625 48 6.765625 55.734375 
Q 9.375 63.484375 14.515625 67.671875 
Q 19.671875 71.875 27.484375 71.875 
Q 33.25 71.875 37.59375 69.546875 
Q 41.9375 67.234375 44.765625 62.859375 
Q 47.609375 58.5 49.21875 52.21875 
Q 50.828125 45.953125 50.828125 35.296875 
Q 50.828125 22.703125 48.234375 14.96875 
Q 45.65625 7.234375 40.5 3 
Q 35.359375 -1.21875 27.484375 -1.21875 
Q 17.140625 -1.21875 11.234375 6.203125 
Q 4.15625 15.140625 4.15625 35.296875 
z
M 13.1875 35.296875 
Q 13.1875 17.671875 17.3125 11.828125 
Q 21.4375 6 27.484375 6 
Q 33.546875 6 37.671875 11.859375 
Q 41.796875 17.71875 41.796875 35.296875 
Q 41.796875 52.984375 37.671875 58.78125 
Q 33.546875 64.59375 27.390625 64.59375 
Q 21.34375 64.59375 17.71875 59.46875 
Q 13.1875 52.9375 13.1875 35.296875 
z
" id="ArialMT-48"/>
      </defs>
      <g style="fill:#555555;" transform="translate(121.326875 436.516433)scale(0.12 -0.12)">
       <use xlink:href="#ArialMT-48"/>
      </g>
     </g>
    </g>
    <g id="ytick_2">
     <g id="line2d_23">
      <path clip-path="url(#p9198906603)" d="M 135 347.685606 
L 972 347.685606 
" style="fill:none;stroke:#ffffff;stroke-linecap:round;"/>
     </g>
     <g id="line2d_24"/>
     <g id="text_22">
      <!-- 100 -->
      <defs>
       <path d="M 37.25 0 
L 28.46875 0 
L 28.46875 56 
Q 25.296875 52.984375 20.140625 49.953125 
Q 14.984375 46.921875 10.890625 45.40625 
L 10.890625 53.90625 
Q 18.265625 57.375 23.78125 62.296875 
Q 29.296875 67.234375 31.59375 71.875 
L 37.25 71.875 
z
" id="ArialMT-49"/>
      </defs>
      <g style="fill:#555555;" transform="translate(107.980625 351.980293)scale(0.12 -0.12)">
       <use xlink:href="#ArialMT-49"/>
       <use x="55.615234" xlink:href="#ArialMT-48"/>
       <use x="111.230469" xlink:href="#ArialMT-48"/>
      </g>
     </g>
    </g>
    <g id="ytick_3">
     <g id="line2d_25">
      <path clip-path="url(#p9198906603)" d="M 135 263.149465 
L 972 263.149465 
" style="fill:none;stroke:#ffffff;stroke-linecap:round;"/>
     </g>
     <g id="line2d_26"/>
     <g id="text_23">
      <!-- 200 -->
      <defs>
       <path d="M 50.34375 8.453125 
L 50.34375 0 
L 3.03125 0 
Q 2.9375 3.171875 4.046875 6.109375 
Q 5.859375 10.9375 9.828125 15.625 
Q 13.8125 20.3125 21.34375 26.46875 
Q 33.015625 36.03125 37.109375 41.625 
Q 41.21875 47.21875 41.21875 52.203125 
Q 41.21875 57.421875 37.46875 61 
Q 33.734375 64.59375 27.734375 64.59375 
Q 21.390625 64.59375 17.578125 60.78125 
Q 13.765625 56.984375 13.71875 50.25 
L 4.6875 51.171875 
Q 5.609375 61.28125 11.65625 66.578125 
Q 17.71875 71.875 27.9375 71.875 
Q 38.234375 71.875 44.234375 66.15625 
Q 50.25 60.453125 50.25 52 
Q 50.25 47.703125 48.484375 43.546875 
Q 46.734375 39.40625 42.65625 34.8125 
Q 38.578125 30.21875 29.109375 22.21875 
Q 21.1875 15.578125 18.9375 13.203125 
Q 16.703125 10.84375 15.234375 8.453125 
z
" id="ArialMT-50"/>
      </defs>
      <g style="fill:#555555;" transform="translate(107.980625 267.444153)scale(0.12 -0.12)">
       <use xlink:href="#ArialMT-50"/>
       <use x="55.615234" xlink:href="#ArialMT-48"/>
       <use x="111.230469" xlink:href="#ArialMT-48"/>
      </g>
     </g>
    </g>
    <g id="ytick_4">
     <g id="line2d_27">
      <path clip-path="url(#p9198906603)" d="M 135 178.613325 
L 972 178.613325 
" style="fill:none;stroke:#ffffff;stroke-linecap:round;"/>
     </g>
     <g id="line2d_28"/>
     <g id="text_24">
      <!-- 300 -->
      <defs>
       <path d="M 4.203125 18.890625 
L 12.984375 20.0625 
Q 14.5 12.59375 18.140625 9.296875 
Q 21.78125 6 27 6 
Q 33.203125 6 37.46875 10.296875 
Q 41.75 14.59375 41.75 20.953125 
Q 41.75 27 37.796875 30.921875 
Q 33.84375 34.859375 27.734375 34.859375 
Q 25.25 34.859375 21.53125 33.890625 
L 22.515625 41.609375 
Q 23.390625 41.5 23.921875 41.5 
Q 29.546875 41.5 34.03125 44.421875 
Q 38.53125 47.359375 38.53125 53.46875 
Q 38.53125 58.296875 35.25 61.46875 
Q 31.984375 64.65625 26.8125 64.65625 
Q 21.6875 64.65625 18.265625 61.421875 
Q 14.84375 58.203125 13.875 51.765625 
L 5.078125 53.328125 
Q 6.6875 62.15625 12.390625 67.015625 
Q 18.109375 71.875 26.609375 71.875 
Q 32.46875 71.875 37.390625 69.359375 
Q 42.328125 66.84375 44.9375 62.5 
Q 47.5625 58.15625 47.5625 53.265625 
Q 47.5625 48.640625 45.0625 44.828125 
Q 42.578125 41.015625 37.703125 38.765625 
Q 44.046875 37.3125 47.5625 32.6875 
Q 51.078125 28.078125 51.078125 21.140625 
Q 51.078125 11.765625 44.234375 5.25 
Q 37.40625 -1.265625 26.953125 -1.265625 
Q 17.53125 -1.265625 11.296875 4.34375 
Q 5.078125 9.96875 4.203125 18.890625 
z
" id="ArialMT-51"/>
      </defs>
      <g style="fill:#555555;" transform="translate(107.980625 182.908013)scale(0.12 -0.12)">
       <use xlink:href="#ArialMT-51"/>
       <use x="55.615234" xlink:href="#ArialMT-48"/>
       <use x="111.230469" xlink:href="#ArialMT-48"/>
      </g>
     </g>
    </g>
    <g id="ytick_5">
     <g id="line2d_29">
      <path clip-path="url(#p9198906603)" d="M 135 94.077185 
L 972 94.077185 
" style="fill:none;stroke:#ffffff;stroke-linecap:round;"/>
     </g>
     <g id="line2d_30"/>
     <g id="text_25">
      <!-- 400 -->
      <defs>
       <path d="M 32.328125 0 
L 32.328125 17.140625 
L 1.265625 17.140625 
L 1.265625 25.203125 
L 33.9375 71.578125 
L 41.109375 71.578125 
L 41.109375 25.203125 
L 50.78125 25.203125 
L 50.78125 17.140625 
L 41.109375 17.140625 
L 41.109375 0 
z
M 32.328125 25.203125 
L 32.328125 57.46875 
L 9.90625 25.203125 
z
" id="ArialMT-52"/>
      </defs>
      <g style="fill:#555555;" transform="translate(107.980625 98.371872)scale(0.12 -0.12)">
       <use xlink:href="#ArialMT-52"/>
       <use x="55.615234" xlink:href="#ArialMT-48"/>
       <use x="111.230469" xlink:href="#ArialMT-48"/>
      </g>
     </g>
    </g>
    <g id="text_26">
     <!-- Composition difference to baseline (%) -->
     <defs>
      <path d="M 3.328125 25.921875 
Q 3.328125 40.328125 11.328125 47.265625 
Q 18.015625 53.03125 27.640625 53.03125 
Q 38.328125 53.03125 45.109375 46.015625 
Q 51.90625 39.015625 51.90625 26.65625 
Q 51.90625 16.65625 48.90625 10.90625 
Q 45.90625 5.171875 40.15625 2 
Q 34.421875 -1.171875 27.640625 -1.171875 
Q 16.75 -1.171875 10.03125 5.8125 
Q 3.328125 12.796875 3.328125 25.921875 
z
M 12.359375 25.921875 
Q 12.359375 15.96875 16.703125 11.015625 
Q 21.046875 6.0625 27.640625 6.0625 
Q 34.1875 6.0625 38.53125 11.03125 
Q 42.875 16.015625 42.875 26.21875 
Q 42.875 35.84375 38.5 40.796875 
Q 34.125 45.75 27.640625 45.75 
Q 21.046875 45.75 16.703125 40.8125 
Q 12.359375 35.890625 12.359375 25.921875 
z
" id="ArialMT-111"/>
      <path d="M 6.59375 0 
L 6.59375 51.859375 
L 14.453125 51.859375 
L 14.453125 44.578125 
Q 16.890625 48.390625 20.9375 50.703125 
Q 25 53.03125 30.171875 53.03125 
Q 35.9375 53.03125 39.625 50.640625 
Q 43.3125 48.25 44.828125 43.953125 
Q 50.984375 53.03125 60.84375 53.03125 
Q 68.5625 53.03125 72.703125 48.75 
Q 76.859375 44.484375 76.859375 35.59375 
L 76.859375 0 
L 68.109375 0 
L 68.109375 32.671875 
Q 68.109375 37.9375 67.25 40.25 
Q 66.40625 42.578125 64.15625 43.984375 
Q 61.921875 45.40625 58.890625 45.40625 
Q 53.421875 45.40625 49.796875 41.765625 
Q 46.1875 38.140625 46.1875 30.125 
L 46.1875 0 
L 37.40625 0 
L 37.40625 33.6875 
Q 37.40625 39.546875 35.25 42.46875 
Q 33.109375 45.40625 28.21875 45.40625 
Q 24.515625 45.40625 21.359375 43.453125 
Q 18.21875 41.5 16.796875 37.734375 
Q 15.375 33.984375 15.375 26.90625 
L 15.375 0 
z
" id="ArialMT-109"/>
      <path d="M 6.59375 -19.875 
L 6.59375 51.859375 
L 14.59375 51.859375 
L 14.59375 45.125 
Q 17.4375 49.078125 21 51.046875 
Q 24.5625 53.03125 29.640625 53.03125 
Q 36.28125 53.03125 41.359375 49.609375 
Q 46.4375 46.1875 49.015625 39.953125 
Q 51.609375 33.734375 51.609375 26.3125 
Q 51.609375 18.359375 48.75 11.984375 
Q 45.90625 5.609375 40.453125 2.21875 
Q 35.015625 -1.171875 29 -1.171875 
Q 24.609375 -1.171875 21.109375 0.6875 
Q 17.625 2.546875 15.375 5.375 
L 15.375 -19.875 
z
M 14.546875 25.640625 
Q 14.546875 15.625 18.59375 10.84375 
Q 22.65625 6.0625 28.421875 6.0625 
Q 34.28125 6.0625 38.453125 11.015625 
Q 42.625 15.96875 42.625 26.375 
Q 42.625 36.28125 38.546875 41.203125 
Q 34.46875 46.140625 28.8125 46.140625 
Q 23.1875 46.140625 18.859375 40.890625 
Q 14.546875 35.640625 14.546875 25.640625 
z
" id="ArialMT-112"/>
      <path d="M 3.078125 15.484375 
L 11.765625 16.84375 
Q 12.5 11.625 15.84375 8.84375 
Q 19.1875 6.0625 25.203125 6.0625 
Q 31.25 6.0625 34.171875 8.515625 
Q 37.109375 10.984375 37.109375 14.3125 
Q 37.109375 17.28125 34.515625 19 
Q 32.71875 20.171875 25.53125 21.96875 
Q 15.875 24.421875 12.140625 26.203125 
Q 8.40625 27.984375 6.46875 31.125 
Q 4.546875 34.28125 4.546875 38.09375 
Q 4.546875 41.546875 6.125 44.5 
Q 7.71875 47.46875 10.453125 49.421875 
Q 12.5 50.921875 16.03125 51.96875 
Q 19.578125 53.03125 23.640625 53.03125 
Q 29.734375 53.03125 34.34375 51.265625 
Q 38.96875 49.515625 41.15625 46.5 
Q 43.359375 43.5 44.1875 38.484375 
L 35.59375 37.3125 
Q 35.015625 41.3125 32.203125 43.546875 
Q 29.390625 45.796875 24.265625 45.796875 
Q 18.21875 45.796875 15.625 43.796875 
Q 13.03125 41.796875 13.03125 39.109375 
Q 13.03125 37.40625 14.109375 36.03125 
Q 15.1875 34.625 17.484375 33.6875 
Q 18.796875 33.203125 25.25 31.453125 
Q 34.578125 28.953125 38.25 27.359375 
Q 41.9375 25.78125 44.03125 22.75 
Q 46.140625 19.734375 46.140625 15.234375 
Q 46.140625 10.84375 43.578125 6.953125 
Q 41.015625 3.078125 36.171875 0.953125 
Q 31.34375 -1.171875 25.25 -1.171875 
Q 15.140625 -1.171875 9.84375 3.03125 
Q 4.546875 7.234375 3.078125 15.484375 
z
" id="ArialMT-115"/>
      <path d="M 6.640625 61.46875 
L 6.640625 71.578125 
L 15.4375 71.578125 
L 15.4375 61.46875 
z
M 6.640625 0 
L 6.640625 51.859375 
L 15.4375 51.859375 
L 15.4375 0 
z
" id="ArialMT-105"/>
      <path d="M 25.78125 7.859375 
L 27.046875 0.09375 
Q 23.34375 -0.6875 20.40625 -0.6875 
Q 15.625 -0.6875 12.984375 0.828125 
Q 10.359375 2.34375 9.28125 4.8125 
Q 8.203125 7.28125 8.203125 15.1875 
L 8.203125 45.015625 
L 1.765625 45.015625 
L 1.765625 51.859375 
L 8.203125 51.859375 
L 8.203125 64.703125 
L 16.9375 69.96875 
L 16.9375 51.859375 
L 25.78125 51.859375 
L 25.78125 45.015625 
L 16.9375 45.015625 
L 16.9375 14.703125 
Q 16.9375 10.9375 17.40625 9.859375 
Q 17.875 8.796875 18.921875 8.15625 
Q 19.96875 7.515625 21.921875 7.515625 
Q 23.390625 7.515625 25.78125 7.859375 
z
" id="ArialMT-116"/>
      <path d="M 6.59375 0 
L 6.59375 51.859375 
L 14.5 51.859375 
L 14.5 44.484375 
Q 20.21875 53.03125 31 53.03125 
Q 35.6875 53.03125 39.625 51.34375 
Q 43.5625 49.65625 45.515625 46.921875 
Q 47.46875 44.1875 48.25 40.4375 
Q 48.734375 37.984375 48.734375 31.890625 
L 48.734375 0 
L 39.9375 0 
L 39.9375 31.546875 
Q 39.9375 36.921875 38.90625 39.578125 
Q 37.890625 42.234375 35.28125 43.8125 
Q 32.671875 45.40625 29.15625 45.40625 
Q 23.53125 45.40625 19.453125 41.84375 
Q 15.375 38.28125 15.375 28.328125 
L 15.375 0 
z
" id="ArialMT-110"/>
      <path id="ArialMT-32"/>
      <path d="M 40.234375 0 
L 40.234375 6.546875 
Q 35.296875 -1.171875 25.734375 -1.171875 
Q 19.53125 -1.171875 14.328125 2.25 
Q 9.125 5.671875 6.265625 11.796875 
Q 3.421875 17.921875 3.421875 25.875 
Q 3.421875 33.640625 6 39.96875 
Q 8.59375 46.296875 13.765625 49.65625 
Q 18.953125 53.03125 25.34375 53.03125 
Q 30.03125 53.03125 33.6875 51.046875 
Q 37.359375 49.078125 39.65625 45.90625 
L 39.65625 71.578125 
L 48.390625 71.578125 
L 48.390625 0 
z
M 12.453125 25.875 
Q 12.453125 15.921875 16.640625 10.984375 
Q 20.84375 6.0625 26.5625 6.0625 
Q 32.328125 6.0625 36.34375 10.765625 
Q 40.375 15.484375 40.375 25.140625 
Q 40.375 35.796875 36.265625 40.765625 
Q 32.171875 45.75 26.171875 45.75 
Q 20.3125 45.75 16.375 40.96875 
Q 12.453125 36.1875 12.453125 25.875 
z
" id="ArialMT-100"/>
      <path d="M 8.6875 0 
L 8.6875 45.015625 
L 0.921875 45.015625 
L 0.921875 51.859375 
L 8.6875 51.859375 
L 8.6875 57.375 
Q 8.6875 62.59375 9.625 65.140625 
Q 10.890625 68.5625 14.078125 70.671875 
Q 17.28125 72.796875 23.046875 72.796875 
Q 26.765625 72.796875 31.25 71.921875 
L 29.9375 64.265625 
Q 27.203125 64.75 24.75 64.75 
Q 20.75 64.75 19.09375 63.03125 
Q 17.4375 61.328125 17.4375 56.640625 
L 17.4375 51.859375 
L 27.546875 51.859375 
L 27.546875 45.015625 
L 17.4375 45.015625 
L 17.4375 0 
z
" id="ArialMT-102"/>
      <path d="M 42.09375 16.703125 
L 51.171875 15.578125 
Q 49.03125 7.625 43.21875 3.21875 
Q 37.40625 -1.171875 28.375 -1.171875 
Q 17 -1.171875 10.328125 5.828125 
Q 3.65625 12.84375 3.65625 25.484375 
Q 3.65625 38.578125 10.390625 45.796875 
Q 17.140625 53.03125 27.875 53.03125 
Q 38.28125 53.03125 44.875 45.953125 
Q 51.46875 38.875 51.46875 26.03125 
Q 51.46875 25.25 51.421875 23.6875 
L 12.75 23.6875 
Q 13.234375 15.140625 17.578125 10.59375 
Q 21.921875 6.0625 28.421875 6.0625 
Q 33.25 6.0625 36.671875 8.59375 
Q 40.09375 11.140625 42.09375 16.703125 
z
M 13.234375 30.90625 
L 42.1875 30.90625 
Q 41.609375 37.453125 38.875 40.71875 
Q 34.671875 45.796875 27.984375 45.796875 
Q 21.921875 45.796875 17.796875 41.75 
Q 13.671875 37.703125 13.234375 30.90625 
z
" id="ArialMT-101"/>
      <path d="M 6.5 0 
L 6.5 51.859375 
L 14.40625 51.859375 
L 14.40625 44 
Q 17.4375 49.515625 20 51.265625 
Q 22.5625 53.03125 25.640625 53.03125 
Q 30.078125 53.03125 34.671875 50.203125 
L 31.640625 42.046875 
Q 28.421875 43.953125 25.203125 43.953125 
Q 22.3125 43.953125 20.015625 42.21875 
Q 17.71875 40.484375 16.75 37.40625 
Q 15.28125 32.71875 15.28125 27.15625 
L 15.28125 0 
z
" id="ArialMT-114"/>
      <path d="M 40.4375 19 
L 49.078125 17.875 
Q 47.65625 8.9375 41.8125 3.875 
Q 35.984375 -1.171875 27.484375 -1.171875 
Q 16.84375 -1.171875 10.375 5.78125 
Q 3.90625 12.75 3.90625 25.734375 
Q 3.90625 34.125 6.6875 40.421875 
Q 9.46875 46.734375 15.15625 49.875 
Q 20.84375 53.03125 27.546875 53.03125 
Q 35.984375 53.03125 41.359375 48.75 
Q 46.734375 44.484375 48.25 36.625 
L 39.703125 35.296875 
Q 38.484375 40.53125 35.375 43.15625 
Q 32.28125 45.796875 27.875 45.796875 
Q 21.234375 45.796875 17.078125 41.03125 
Q 12.9375 36.28125 12.9375 25.984375 
Q 12.9375 15.53125 16.9375 10.796875 
Q 20.953125 6.0625 27.390625 6.0625 
Q 32.5625 6.0625 36.03125 9.234375 
Q 39.5 12.40625 40.4375 19 
z
" id="ArialMT-99"/>
      <path d="M 14.703125 0 
L 6.546875 0 
L 6.546875 71.578125 
L 15.328125 71.578125 
L 15.328125 46.046875 
Q 20.90625 53.03125 29.546875 53.03125 
Q 34.328125 53.03125 38.59375 51.09375 
Q 42.875 49.171875 45.625 45.671875 
Q 48.390625 42.1875 49.953125 37.25 
Q 51.515625 32.328125 51.515625 26.703125 
Q 51.515625 13.375 44.921875 6.09375 
Q 38.328125 -1.171875 29.109375 -1.171875 
Q 19.921875 -1.171875 14.703125 6.5 
z
M 14.59375 26.3125 
Q 14.59375 17 17.140625 12.84375 
Q 21.296875 6.0625 28.375 6.0625 
Q 34.125 6.0625 38.328125 11.0625 
Q 42.53125 16.0625 42.53125 25.984375 
Q 42.53125 36.140625 38.5 40.96875 
Q 34.46875 45.796875 28.765625 45.796875 
Q 23 45.796875 18.796875 40.796875 
Q 14.59375 35.796875 14.59375 26.3125 
z
" id="ArialMT-98"/>
      <path d="M 40.4375 6.390625 
Q 35.546875 2.25 31.03125 0.53125 
Q 26.515625 -1.171875 21.34375 -1.171875 
Q 12.796875 -1.171875 8.203125 3 
Q 3.609375 7.171875 3.609375 13.671875 
Q 3.609375 17.484375 5.34375 20.625 
Q 7.078125 23.78125 9.890625 25.6875 
Q 12.703125 27.59375 16.21875 28.5625 
Q 18.796875 29.25 24.03125 29.890625 
Q 34.671875 31.15625 39.703125 32.90625 
Q 39.75 34.71875 39.75 35.203125 
Q 39.75 40.578125 37.25 42.78125 
Q 33.890625 45.75 27.25 45.75 
Q 21.046875 45.75 18.09375 43.578125 
Q 15.140625 41.40625 13.71875 35.890625 
L 5.125 37.0625 
Q 6.296875 42.578125 8.984375 45.96875 
Q 11.671875 49.359375 16.75 51.1875 
Q 21.828125 53.03125 28.515625 53.03125 
Q 35.15625 53.03125 39.296875 51.46875 
Q 43.453125 49.90625 45.40625 47.53125 
Q 47.359375 45.171875 48.140625 41.546875 
Q 48.578125 39.3125 48.578125 33.453125 
L 48.578125 21.734375 
Q 48.578125 9.46875 49.140625 6.21875 
Q 49.703125 2.984375 51.375 0 
L 42.1875 0 
Q 40.828125 2.734375 40.4375 6.390625 
z
M 39.703125 26.03125 
Q 34.90625 24.078125 25.34375 22.703125 
Q 19.921875 21.921875 17.671875 20.9375 
Q 15.4375 19.96875 14.203125 18.09375 
Q 12.984375 16.21875 12.984375 13.921875 
Q 12.984375 10.40625 15.640625 8.0625 
Q 18.3125 5.71875 23.4375 5.71875 
Q 28.515625 5.71875 32.46875 7.9375 
Q 36.421875 10.15625 38.28125 14.015625 
Q 39.703125 17 39.703125 22.796875 
z
" id="ArialMT-97"/>
      <path d="M 6.390625 0 
L 6.390625 71.578125 
L 15.1875 71.578125 
L 15.1875 0 
z
" id="ArialMT-108"/>
      <path d="M 23.390625 -21.046875 
Q 16.109375 -11.859375 11.078125 0.4375 
Q 6.0625 12.75 6.0625 25.921875 
Q 6.0625 37.546875 9.8125 48.1875 
Q 14.203125 60.546875 23.390625 72.796875 
L 29.6875 72.796875 
Q 23.78125 62.640625 21.875 58.296875 
Q 18.890625 51.5625 17.1875 44.234375 
Q 15.09375 35.109375 15.09375 25.875 
Q 15.09375 2.390625 29.6875 -21.046875 
z
" id="ArialMT-40"/>
      <path d="M 5.8125 54.390625 
Q 5.8125 62.0625 9.671875 67.421875 
Q 13.53125 72.796875 20.84375 72.796875 
Q 27.59375 72.796875 32 67.984375 
Q 36.421875 63.1875 36.421875 53.859375 
Q 36.421875 44.78125 31.953125 39.875 
Q 27.484375 34.96875 20.953125 34.96875 
Q 14.453125 34.96875 10.125 39.796875 
Q 5.8125 44.625 5.8125 54.390625 
z
M 21.09375 66.75 
Q 17.828125 66.75 15.65625 63.90625 
Q 13.484375 61.078125 13.484375 53.515625 
Q 13.484375 46.625 15.671875 43.8125 
Q 17.875 41.015625 21.09375 41.015625 
Q 24.421875 41.015625 26.59375 43.84375 
Q 28.765625 46.6875 28.765625 54.203125 
Q 28.765625 61.140625 26.5625 63.9375 
Q 24.359375 66.75 21.09375 66.75 
z
M 21.140625 -2.640625 
L 60.296875 72.796875 
L 67.4375 72.796875 
L 28.421875 -2.640625 
z
M 52.09375 16.796875 
Q 52.09375 24.515625 55.953125 29.859375 
Q 59.8125 35.203125 67.1875 35.203125 
Q 73.921875 35.203125 78.34375 30.390625 
Q 82.765625 25.59375 82.765625 16.265625 
Q 82.765625 7.171875 78.296875 2.265625 
Q 73.828125 -2.640625 67.234375 -2.640625 
Q 60.75 -2.640625 56.421875 2.21875 
Q 52.09375 7.078125 52.09375 16.796875 
z
M 67.4375 29.15625 
Q 64.109375 29.15625 61.9375 26.3125 
Q 59.765625 23.484375 59.765625 15.921875 
Q 59.765625 9.078125 61.953125 6.25 
Q 64.15625 3.421875 67.390625 3.421875 
Q 70.75 3.421875 72.921875 6.25 
Q 75.09375 9.078125 75.09375 16.609375 
Q 75.09375 23.53125 72.890625 26.34375 
Q 70.703125 29.15625 67.4375 29.15625 
z
" id="ArialMT-37"/>
      <path d="M 12.359375 -21.046875 
L 6.0625 -21.046875 
Q 20.65625 2.390625 20.65625 25.875 
Q 20.65625 35.0625 18.5625 44.09375 
Q 16.890625 51.421875 13.921875 58.15625 
Q 12.015625 62.546875 6.0625 72.796875 
L 12.359375 72.796875 
Q 21.53125 60.546875 25.921875 48.1875 
Q 29.6875 37.546875 29.6875 25.921875 
Q 29.6875 12.75 24.625 0.4375 
Q 19.578125 -11.859375 12.359375 -21.046875 
z
" id="ArialMT-41"/>
     </defs>
     <g style="fill:#555555;" transform="translate(100.823594 415.365469)rotate(-90)scale(0.15 -0.15)">
      <use xlink:href="#ArialMT-67"/>
      <use x="72.216797" xlink:href="#ArialMT-111"/>
      <use x="127.832031" xlink:href="#ArialMT-109"/>
      <use x="211.132812" xlink:href="#ArialMT-112"/>
      <use x="266.748047" xlink:href="#ArialMT-111"/>
      <use x="322.363281" xlink:href="#ArialMT-115"/>
      <use x="372.363281" xlink:href="#ArialMT-105"/>
      <use x="394.580078" xlink:href="#ArialMT-116"/>
      <use x="422.363281" xlink:href="#ArialMT-105"/>
      <use x="444.580078" xlink:href="#ArialMT-111"/>
      <use x="500.195312" xlink:href="#ArialMT-110"/>
      <use x="555.810547" xlink:href="#ArialMT-32"/>
      <use x="583.59375" xlink:href="#ArialMT-100"/>
      <use x="639.208984" xlink:href="#ArialMT-105"/>
      <use x="661.425781" xlink:href="#ArialMT-102"/>
      <use x="689.193359" xlink:href="#ArialMT-102"/>
      <use x="716.976562" xlink:href="#ArialMT-101"/>
      <use x="772.591797" xlink:href="#ArialMT-114"/>
      <use x="805.892578" xlink:href="#ArialMT-101"/>
      <use x="861.507812" xlink:href="#ArialMT-110"/>
      <use x="917.123047" xlink:href="#ArialMT-99"/>
      <use x="967.123047" xlink:href="#ArialMT-101"/>
      <use x="1022.738281" xlink:href="#ArialMT-32"/>
      <use x="1050.521484" xlink:href="#ArialMT-116"/>
      <use x="1078.304688" xlink:href="#ArialMT-111"/>
      <use x="1133.919922" xlink:href="#ArialMT-32"/>
      <use x="1161.703125" xlink:href="#ArialMT-98"/>
      <use x="1217.318359" xlink:href="#ArialMT-97"/>
      <use x="1272.933594" xlink:href="#ArialMT-115"/>
      <use x="1322.933594" xlink:href="#ArialMT-101"/>
      <use x="1378.548828" xlink:href="#ArialMT-108"/>
      <use x="1400.765625" xlink:href="#ArialMT-105"/>
      <use x="1422.982422" xlink:href="#ArialMT-110"/>
      <use x="1478.597656" xlink:href="#ArialMT-101"/>
      <use x="1534.212891" xlink:href="#ArialMT-32"/>
      <use x="1561.996094" xlink:href="#ArialMT-40"/>
      <use x="1595.296875" xlink:href="#ArialMT-37"/>
      <use x="1684.212891" xlink:href="#ArialMT-41"/>
     </g>
    </g>
   </g>
   <g id="patch_3">
    <path clip-path="url(#p9198906603)" d="M 139.185 432.221746 
L 147.555 432.221746 
L 147.555 456.86345 
L 139.185 456.86345 
z
" style="fill:#abc9ea;stroke:#333333;stroke-linejoin:miter;stroke-width:0.5;"/>
   </g>
   <g id="patch_4">
    <path clip-path="url(#p9198906603)" d="M 181.035 432.221746 
L 189.405 432.221746 
L 189.405 414.403269 
L 181.035 414.403269 
z
" style="fill:#abc9ea;stroke:#333333;stroke-linejoin:miter;stroke-width:0.5;"/>
   </g>
   <g id="patch_5">
    <path clip-path="url(#p9198906603)" d="M 222.885 432.221746 
L 231.255 432.221746 
L 231.255 457.539174 
L 222.885 457.539174 
z
" style="fill:#abc9ea;stroke:#333333;stroke-linejoin:miter;stroke-width:0.5;"/>
   </g>
   <g id="patch_6">
    <path clip-path="url(#p9198906603)" d="M 264.735 432.221746 
L 273.105 432.221746 
L 273.105 448.170063 
L 264.735 448.170063 
z
" style="fill:#abc9ea;stroke:#333333;stroke-linejoin:miter;stroke-width:0.5;"/>
   </g>
   <g id="patch_7">
    <path clip-path="url(#p9198906603)" d="M 306.585 432.221746 
L 314.955 432.221746 
L 314.955 423.919833 
L 306.585 423.919833 
z
" style="fill:#abc9ea;stroke:#333333;stroke-linejoin:miter;stroke-width:0.5;"/>
   </g>
   <g id="patch_8">
    <path clip-path="url(#p9198906603)" d="M 348.435 432.221746 
L 356.805 432.221746 
L 356.805 433.329486 
L 348.435 433.329486 
z
" style="fill:#abc9ea;stroke:#333333;stroke-linejoin:miter;stroke-width:0.5;"/>
   </g>
   <g id="patch_9">
    <path clip-path="url(#p9198906603)" d="M 390.285 432.221746 
L 398.655 432.221746 
L 398.655 264.761263 
L 390.285 264.761263 
z
" style="fill:#abc9ea;stroke:#333333;stroke-linejoin:miter;stroke-width:0.5;"/>
   </g>
   <g id="patch_10">
    <path clip-path="url(#p9198906603)" d="M 432.135 432.221746 
L 440.505 432.221746 
L 440.505 467.461495 
L 432.135 467.461495 
z
" style="fill:#abc9ea;stroke:#333333;stroke-linejoin:miter;stroke-width:0.5;"/>
   </g>
   <g id="patch_11">
    <path clip-path="url(#p9198906603)" d="M 473.985 432.221746 
L 482.355 432.221746 
L 482.355 461.112717 
L 473.985 461.112717 
z
" style="fill:#abc9ea;stroke:#333333;stroke-linejoin:miter;stroke-width:0.5;"/>
   </g>
   <g id="patch_12">
    <path clip-path="url(#p9198906603)" d="M 515.835 432.221746 
L 524.205 432.221746 
L 524.205 433.347737 
L 515.835 433.347737 
z
" style="fill:#abc9ea;stroke:#333333;stroke-linejoin:miter;stroke-width:0.5;"/>
   </g>
   <g id="patch_13">
    <path clip-path="url(#p9198906603)" d="M 557.685 432.221746 
L 566.055 432.221746 
L 566.055 439.498478 
L 557.685 439.498478 
z
" style="fill:#abc9ea;stroke:#333333;stroke-linejoin:miter;stroke-width:0.5;"/>
   </g>
   <g id="patch_14">
    <path clip-path="url(#p9198906603)" d="M 599.535 432.221746 
L 607.905 432.221746 
L 607.905 450.422266 
L 599.535 450.422266 
z
" style="fill:#abc9ea;stroke:#333333;stroke-linejoin:miter;stroke-width:0.5;"/>
   </g>
   <g id="patch_15">
    <path clip-path="url(#p9198906603)" d="M 641.385 432.221746 
L 649.755 432.221746 
L 649.755 339.640498 
L 641.385 339.640498 
z
" style="fill:#abc9ea;stroke:#333333;stroke-linejoin:miter;stroke-width:0.5;"/>
   </g>
   <g id="patch_16">
    <path clip-path="url(#p9198906603)" d="M 683.235 432.221746 
L 691.605 432.221746 
L 691.605 437.46706 
L 683.235 437.46706 
z
" style="fill:#abc9ea;stroke:#333333;stroke-linejoin:miter;stroke-width:0.5;"/>
   </g>
   <g id="patch_17">
    <path clip-path="url(#p9198906603)" d="M 725.085 432.221746 
L 733.455 432.221746 
L 733.455 446.320964 
L 725.085 446.320964 
z
" style="fill:#abc9ea;stroke:#333333;stroke-linejoin:miter;stroke-width:0.5;"/>
   </g>
   <g id="patch_18">
    <path clip-path="url(#p9198906603)" d="M 766.935 432.221746 
L 775.305 432.221746 
L 775.305 469.595213 
L 766.935 469.595213 
z
" style="fill:#abc9ea;stroke:#333333;stroke-linejoin:miter;stroke-width:0.5;"/>
   </g>
   <g id="patch_19">
    <path clip-path="url(#p9198906603)" d="M 808.785 432.221746 
L 817.155 432.221746 
L 817.155 466.322939 
L 808.785 466.322939 
z
" style="fill:#abc9ea;stroke:#333333;stroke-linejoin:miter;stroke-width:0.5;"/>
   </g>
   <g id="patch_20">
    <path clip-path="url(#p9198906603)" d="M 850.635 432.221746 
L 859.005 432.221746 
L 859.005 449.368104 
L 850.635 449.368104 
z
" style="fill:#abc9ea;stroke:#333333;stroke-linejoin:miter;stroke-width:0.5;"/>
   </g>
   <g id="patch_21">
    <path clip-path="url(#p9198906603)" d="M 892.485 432.221746 
L 900.855 432.221746 
L 900.855 236.471111 
L 892.485 236.471111 
z
" style="fill:#abc9ea;stroke:#333333;stroke-linejoin:miter;stroke-width:0.5;"/>
   </g>
   <g id="patch_22">
    <path clip-path="url(#p9198906603)" d="M 934.335 432.221746 
L 942.705 432.221746 
L 942.705 258.35087 
L 934.335 258.35087 
z
" style="fill:#abc9ea;stroke:#333333;stroke-linejoin:miter;stroke-width:0.5;"/>
   </g>
   <g id="patch_23">
    <path clip-path="url(#p9198906603)" d="M 147.555 432.221746 
L 155.925 432.221746 
L 155.925 442.632064 
L 147.555 442.632064 
z
" style="fill:#efb792;stroke:#333333;stroke-linejoin:miter;stroke-width:0.5;"/>
   </g>
   <g id="patch_24">
    <path clip-path="url(#p9198906603)" d="M 189.405 432.221746 
L 197.775 432.221746 
L 197.775 451.114044 
L 189.405 451.114044 
z
" style="fill:#efb792;stroke:#333333;stroke-linejoin:miter;stroke-width:0.5;"/>
   </g>
   <g id="patch_25">
    <path clip-path="url(#p9198906603)" d="M 231.255 432.221746 
L 239.625 432.221746 
L 239.625 440.851924 
L 231.255 440.851924 
z
" style="fill:#efb792;stroke:#333333;stroke-linejoin:miter;stroke-width:0.5;"/>
   </g>
   <g id="patch_26">
    <path clip-path="url(#p9198906603)" d="M 273.105 432.221746 
L 281.475 432.221746 
L 281.475 450.141542 
L 273.105 450.141542 
z
" style="fill:#efb792;stroke:#333333;stroke-linejoin:miter;stroke-width:0.5;"/>
   </g>
   <g id="patch_27">
    <path clip-path="url(#p9198906603)" d="M 314.955 432.221746 
L 323.325 432.221746 
L 323.325 409.58496 
L 314.955 409.58496 
z
" style="fill:#efb792;stroke:#333333;stroke-linejoin:miter;stroke-width:0.5;"/>
   </g>
   <g id="patch_28">
    <path clip-path="url(#p9198906603)" d="M 356.805 432.221746 
L 365.175 432.221746 
L 365.175 455.700756 
L 356.805 455.700756 
z
" style="fill:#efb792;stroke:#333333;stroke-linejoin:miter;stroke-width:0.5;"/>
   </g>
   <g id="patch_29">
    <path clip-path="url(#p9198906603)" d="M 398.655 432.221746 
L 407.025 432.221746 
L 407.025 88.887273 
L 398.655 88.887273 
z
" style="fill:#efb792;stroke:#333333;stroke-linejoin:miter;stroke-width:0.5;"/>
   </g>
   <g id="patch_30">
    <path clip-path="url(#p9198906603)" d="M 440.505 432.221746 
L 448.875 432.221746 
L 448.875 474.507923 
L 440.505 474.507923 
z
" style="fill:#efb792;stroke:#333333;stroke-linejoin:miter;stroke-width:0.5;"/>
   </g>
   <g id="patch_31">
    <path clip-path="url(#p9198906603)" d="M 482.355 432.221746 
L 490.725 432.221746 
L 490.725 473.639773 
L 482.355 473.639773 
z
" style="fill:#efb792;stroke:#333333;stroke-linejoin:miter;stroke-width:0.5;"/>
   </g>
   <g id="patch_32">
    <path clip-path="url(#p9198906603)" d="M 524.205 432.221746 
L 532.575 432.221746 
L 532.575 390.145456 
L 524.205 390.145456 
z
" style="fill:#efb792;stroke:#333333;stroke-linejoin:miter;stroke-width:0.5;"/>
   </g>
   <g id="patch_33">
    <path clip-path="url(#p9198906603)" d="M 566.055 432.221746 
L 574.425 432.221746 
L 574.425 479.595876 
L 566.055 479.595876 
z
" style="fill:#efb792;stroke:#333333;stroke-linejoin:miter;stroke-width:0.5;"/>
   </g>
   <g id="patch_34">
    <path clip-path="url(#p9198906603)" d="M 607.905 432.221746 
L 616.275 432.221746 
L 616.275 459.165924 
L 607.905 459.165924 
z
" style="fill:#efb792;stroke:#333333;stroke-linejoin:miter;stroke-width:0.5;"/>
   </g>
   <g id="patch_35">
    <path clip-path="url(#p9198906603)" d="M 649.755 432.221746 
L 658.125 432.221746 
L 658.125 313.93238 
L 649.755 313.93238 
z
" style="fill:#efb792;stroke:#333333;stroke-linejoin:miter;stroke-width:0.5;"/>
   </g>
   <g id="patch_36">
    <path clip-path="url(#p9198906603)" d="M 691.605 432.221746 
L 699.975 432.221746 
L 699.975 406.917197 
L 691.605 406.917197 
z
" style="fill:#efb792;stroke:#333333;stroke-linejoin:miter;stroke-width:0.5;"/>
   </g>
   <g id="patch_37">
    <path clip-path="url(#p9198906603)" d="M 733.455 432.221746 
L 741.825 432.221746 
L 741.825 484.232727 
L 733.455 484.232727 
z
" style="fill:#efb792;stroke:#333333;stroke-linejoin:miter;stroke-width:0.5;"/>
   </g>
   <g id="patch_38">
    <path clip-path="url(#p9198906603)" d="M 775.305 432.221746 
L 783.675 432.221746 
L 783.675 448.212106 
L 775.305 448.212106 
z
" style="fill:#efb792;stroke:#333333;stroke-linejoin:miter;stroke-width:0.5;"/>
   </g>
   <g id="patch_39">
    <path clip-path="url(#p9198906603)" d="M 817.155 432.221746 
L 825.525 432.221746 
L 825.525 476.338981 
L 817.155 476.338981 
z
" style="fill:#efb792;stroke:#333333;stroke-linejoin:miter;stroke-width:0.5;"/>
   </g>
   <g id="patch_40">
    <path clip-path="url(#p9198906603)" d="M 859.005 432.221746 
L 867.375 432.221746 
L 867.375 477.486242 
L 859.005 477.486242 
z
" style="fill:#efb792;stroke:#333333;stroke-linejoin:miter;stroke-width:0.5;"/>
   </g>
   <g id="patch_41">
    <path clip-path="url(#p9198906603)" d="M 900.855 432.221746 
L 909.225 432.221746 
L 909.225 400.179284 
L 900.855 400.179284 
z
" style="fill:#efb792;stroke:#333333;stroke-linejoin:miter;stroke-width:0.5;"/>
   </g>
   <g id="patch_42">
    <path clip-path="url(#p9198906603)" d="M 942.705 432.221746 
L 951.075 432.221746 
L 951.075 381.243817 
L 942.705 381.243817 
z
" style="fill:#efb792;stroke:#333333;stroke-linejoin:miter;stroke-width:0.5;"/>
   </g>
   <g id="patch_43">
    <path clip-path="url(#p9198906603)" d="M 155.925 432.221746 
L 164.295 432.221746 
L 164.295 417.251342 
L 155.925 417.251342 
z
" style="fill:#98daa7;stroke:#333333;stroke-linejoin:miter;stroke-width:0.5;"/>
   </g>
   <g id="patch_44">
    <path clip-path="url(#p9198906603)" d="M 197.775 432.221746 
L 206.145 432.221746 
L 206.145 473.956583 
L 197.775 473.956583 
z
" style="fill:#98daa7;stroke:#333333;stroke-linejoin:miter;stroke-width:0.5;"/>
   </g>
   <g id="patch_45">
    <path clip-path="url(#p9198906603)" d="M 239.625 432.221746 
L 247.995 432.221746 
L 247.995 425.30446 
L 239.625 425.30446 
z
" style="fill:#98daa7;stroke:#333333;stroke-linejoin:miter;stroke-width:0.5;"/>
   </g>
   <g id="patch_46">
    <path clip-path="url(#p9198906603)" d="M 281.475 432.221746 
L 289.845 432.221746 
L 289.845 437.126326 
L 281.475 437.126326 
z
" style="fill:#98daa7;stroke:#333333;stroke-linejoin:miter;stroke-width:0.5;"/>
   </g>
   <g id="patch_47">
    <path clip-path="url(#p9198906603)" d="M 323.325 432.221746 
L 331.695 432.221746 
L 331.695 423.079214 
L 323.325 423.079214 
z
" style="fill:#98daa7;stroke:#333333;stroke-linejoin:miter;stroke-width:0.5;"/>
   </g>
   <g id="patch_48">
    <path clip-path="url(#p9198906603)" d="M 365.175 432.221746 
L 373.545 432.221746 
L 373.545 469.75919 
L 365.175 469.75919 
z
" style="fill:#98daa7;stroke:#333333;stroke-linejoin:miter;stroke-width:0.5;"/>
   </g>
   <g id="patch_49">
    <path clip-path="url(#p9198906603)" d="M 407.025 432.221746 
L 415.395 432.221746 
L 415.395 465.094639 
L 407.025 465.094639 
z
" style="fill:#98daa7;stroke:#333333;stroke-linejoin:miter;stroke-width:0.5;"/>
   </g>
   <g id="patch_50">
    <path clip-path="url(#p9198906603)" d="M 448.875 432.221746 
L 457.245 432.221746 
L 457.245 446.248245 
L 448.875 446.248245 
z
" style="fill:#98daa7;stroke:#333333;stroke-linejoin:miter;stroke-width:0.5;"/>
   </g>
   <g id="patch_51">
    <path clip-path="url(#p9198906603)" d="M 490.725 432.221746 
L 499.095 432.221746 
L 499.095 411.330361 
L 490.725 411.330361 
z
" style="fill:#98daa7;stroke:#333333;stroke-linejoin:miter;stroke-width:0.5;"/>
   </g>
   <g id="patch_52">
    <path clip-path="url(#p9198906603)" d="M 532.575 432.221746 
L 540.945 432.221746 
L 540.945 404.45985 
L 532.575 404.45985 
z
" style="fill:#98daa7;stroke:#333333;stroke-linejoin:miter;stroke-width:0.5;"/>
   </g>
   <g id="patch_53">
    <path clip-path="url(#p9198906603)" d="M 574.425 432.221746 
L 582.795 432.221746 
L 582.795 452.143247 
L 574.425 452.143247 
z
" style="fill:#98daa7;stroke:#333333;stroke-linejoin:miter;stroke-width:0.5;"/>
   </g>
   <g id="patch_54">
    <path clip-path="url(#p9198906603)" d="M 616.275 432.221746 
L 624.645 432.221746 
L 624.645 442.136731 
L 616.275 442.136731 
z
" style="fill:#98daa7;stroke:#333333;stroke-linejoin:miter;stroke-width:0.5;"/>
   </g>
   <g id="patch_55">
    <path clip-path="url(#p9198906603)" d="M 658.125 432.221746 
L 666.495 432.221746 
L 666.495 362.885684 
L 658.125 362.885684 
z
" style="fill:#98daa7;stroke:#333333;stroke-linejoin:miter;stroke-width:0.5;"/>
   </g>
   <g id="patch_56">
    <path clip-path="url(#p9198906603)" d="M 699.975 432.221746 
L 708.345 432.221746 
L 708.345 392.419919 
L 699.975 392.419919 
z
" style="fill:#98daa7;stroke:#333333;stroke-linejoin:miter;stroke-width:0.5;"/>
   </g>
   <g id="patch_57">
    <path clip-path="url(#p9198906603)" d="M 741.825 432.221746 
L 750.195 432.221746 
L 750.195 472.576312 
L 741.825 472.576312 
z
" style="fill:#98daa7;stroke:#333333;stroke-linejoin:miter;stroke-width:0.5;"/>
   </g>
   <g id="patch_58">
    <path clip-path="url(#p9198906603)" d="M 783.675 432.221746 
L 792.045 432.221746 
L 792.045 446.738173 
L 783.675 446.738173 
z
" style="fill:#98daa7;stroke:#333333;stroke-linejoin:miter;stroke-width:0.5;"/>
   </g>
   <g id="patch_59">
    <path clip-path="url(#p9198906603)" d="M 825.525 432.221746 
L 833.895 432.221746 
L 833.895 452.702877 
L 825.525 452.702877 
z
" style="fill:#98daa7;stroke:#333333;stroke-linejoin:miter;stroke-width:0.5;"/>
   </g>
   <g id="patch_60">
    <path clip-path="url(#p9198906603)" d="M 867.375 432.221746 
L 875.745 432.221746 
L 875.745 432.827044 
L 867.375 432.827044 
z
" style="fill:#98daa7;stroke:#333333;stroke-linejoin:miter;stroke-width:0.5;"/>
   </g>
   <g id="patch_61">
    <path clip-path="url(#p9198906603)" d="M 909.225 432.221746 
L 917.595 432.221746 
L 917.595 362.92419 
L 909.225 362.92419 
z
" style="fill:#98daa7;stroke:#333333;stroke-linejoin:miter;stroke-width:0.5;"/>
   </g>
   <g id="patch_62">
    <path clip-path="url(#p9198906603)" d="M 951.075 432.221746 
L 959.445 432.221746 
L 959.445 466.554303 
L 951.075 466.554303 
z
" style="fill:#98daa7;stroke:#333333;stroke-linejoin:miter;stroke-width:0.5;"/>
   </g>
   <g id="patch_63">
    <path clip-path="url(#p9198906603)" d="M 164.295 432.221746 
L 172.665 432.221746 
L 172.665 437.198102 
L 164.295 437.198102 
z
" style="fill:#f2aba8;stroke:#333333;stroke-linejoin:miter;stroke-width:0.5;"/>
   </g>
   <g id="patch_64">
    <path clip-path="url(#p9198906603)" d="M 206.145 432.221746 
L 214.515 432.221746 
L 214.515 414.226567 
L 206.145 414.226567 
z
" style="fill:#f2aba8;stroke:#333333;stroke-linejoin:miter;stroke-width:0.5;"/>
   </g>
   <g id="patch_65">
    <path clip-path="url(#p9198906603)" d="M 247.995 432.221746 
L 256.365 432.221746 
L 256.365 429.595148 
L 247.995 429.595148 
z
" style="fill:#f2aba8;stroke:#333333;stroke-linejoin:miter;stroke-width:0.5;"/>
   </g>
   <g id="patch_66">
    <path clip-path="url(#p9198906603)" d="M 289.845 432.221746 
L 298.215 432.221746 
L 298.215 431.625821 
L 289.845 431.625821 
z
" style="fill:#f2aba8;stroke:#333333;stroke-linejoin:miter;stroke-width:0.5;"/>
   </g>
   <g id="patch_67">
    <path clip-path="url(#p9198906603)" d="M 331.695 432.221746 
L 340.065 432.221746 
L 340.065 431.405272 
L 331.695 431.405272 
z
" style="fill:#f2aba8;stroke:#333333;stroke-linejoin:miter;stroke-width:0.5;"/>
   </g>
   <g id="patch_68">
    <path clip-path="url(#p9198906603)" d="M 373.545 432.221746 
L 381.915 432.221746 
L 381.915 433.311605 
L 373.545 433.311605 
z
" style="fill:#f2aba8;stroke:#333333;stroke-linejoin:miter;stroke-width:0.5;"/>
   </g>
   <g id="patch_69">
    <path clip-path="url(#p9198906603)" d="M 415.395 432.221746 
L 423.765 432.221746 
L 423.765 443.626817 
L 415.395 443.626817 
z
" style="fill:#f2aba8;stroke:#333333;stroke-linejoin:miter;stroke-width:0.5;"/>
   </g>
   <g id="patch_70">
    <path clip-path="url(#p9198906603)" d="M 457.245 432.221746 
L 465.615 432.221746 
L 465.615 435.339636 
L 457.245 435.339636 
z
" style="fill:#f2aba8;stroke:#333333;stroke-linejoin:miter;stroke-width:0.5;"/>
   </g>
   <g id="patch_71">
    <path clip-path="url(#p9198906603)" d="M 499.095 432.221746 
L 507.465 432.221746 
L 507.465 424.482891 
L 499.095 424.482891 
z
" style="fill:#f2aba8;stroke:#333333;stroke-linejoin:miter;stroke-width:0.5;"/>
   </g>
   <g id="patch_72">
    <path clip-path="url(#p9198906603)" d="M 540.945 432.221746 
L 549.315 432.221746 
L 549.315 431.625821 
L 540.945 431.625821 
z
" style="fill:#f2aba8;stroke:#333333;stroke-linejoin:miter;stroke-width:0.5;"/>
   </g>
   <g id="patch_73">
    <path clip-path="url(#p9198906603)" d="M 582.795 432.221746 
L 591.165 432.221746 
L 591.165 438.661529 
L 582.795 438.661529 
z
" style="fill:#f2aba8;stroke:#333333;stroke-linejoin:miter;stroke-width:0.5;"/>
   </g>
   <g id="patch_74">
    <path clip-path="url(#p9198906603)" d="M 624.645 432.221746 
L 633.015 432.221746 
L 633.015 425.54496 
L 624.645 425.54496 
z
" style="fill:#f2aba8;stroke:#333333;stroke-linejoin:miter;stroke-width:0.5;"/>
   </g>
   <g id="patch_75">
    <path clip-path="url(#p9198906603)" d="M 666.495 432.221746 
L 674.865 432.221746 
L 674.865 434.16167 
L 666.495 434.16167 
z
" style="fill:#f2aba8;stroke:#333333;stroke-linejoin:miter;stroke-width:0.5;"/>
   </g>
   <g id="patch_76">
    <path clip-path="url(#p9198906603)" d="M 708.345 432.221746 
L 716.715 432.221746 
L 716.715 429.676232 
L 708.345 429.676232 
z
" style="fill:#f2aba8;stroke:#333333;stroke-linejoin:miter;stroke-width:0.5;"/>
   </g>
   <g id="patch_77">
    <path clip-path="url(#p9198906603)" d="M 750.195 432.221746 
L 758.565 432.221746 
L 758.565 415.615451 
L 750.195 415.615451 
z
" style="fill:#f2aba8;stroke:#333333;stroke-linejoin:miter;stroke-width:0.5;"/>
   </g>
   <g id="patch_78">
    <path clip-path="url(#p9198906603)" d="M 792.045 432.221746 
L 800.415 432.221746 
L 800.415 437.725222 
L 792.045 437.725222 
z
" style="fill:#f2aba8;stroke:#333333;stroke-linejoin:miter;stroke-width:0.5;"/>
   </g>
   <g id="patch_79">
    <path clip-path="url(#p9198906603)" d="M 833.895 432.221746 
L 842.265 432.221746 
L 842.265 441.669492 
L 833.895 441.669492 
z
" style="fill:#f2aba8;stroke:#333333;stroke-linejoin:miter;stroke-width:0.5;"/>
   </g>
   <g id="patch_80">
    <path clip-path="url(#p9198906603)" d="M 875.745 432.221746 
L 884.115 432.221746 
L 884.115 437.945669 
L 875.745 437.945669 
z
" style="fill:#f2aba8;stroke:#333333;stroke-linejoin:miter;stroke-width:0.5;"/>
   </g>
   <g id="patch_81">
    <path clip-path="url(#p9198906603)" d="M 917.595 432.221746 
L 925.965 432.221746 
L 925.965 438.72016 
L 917.595 438.72016 
z
" style="fill:#f2aba8;stroke:#333333;stroke-linejoin:miter;stroke-width:0.5;"/>
   </g>
   <g id="patch_82">
    <path clip-path="url(#p9198906603)" d="M 959.445 432.221746 
L 967.815 432.221746 
L 967.815 420.546991 
L 959.445 420.546991 
z
" style="fill:#f2aba8;stroke:#333333;stroke-linejoin:miter;stroke-width:0.5;"/>
   </g>
   <g id="line2d_31">
    <path clip-path="url(#p9198906603)" d="M 0 0 
" style="fill:none;stroke:#424242;stroke-linecap:round;stroke-width:3.15;"/>
   </g>
   <g id="line2d_32">
    <path clip-path="url(#p9198906603)" d="M 0 0 
" style="fill:none;stroke:#424242;stroke-linecap:round;stroke-width:3.15;"/>
   </g>
   <g id="line2d_33">
    <path clip-path="url(#p9198906603)" d="M 0 0 
" style="fill:none;stroke:#424242;stroke-linecap:round;stroke-width:3.15;"/>
   </g>
   <g id="line2d_34">
    <path clip-path="url(#p9198906603)" d="M 0 0 
" style="fill:none;stroke:#424242;stroke-linecap:round;stroke-width:3.15;"/>
   </g>
   <g id="line2d_35">
    <path clip-path="url(#p9198906603)" d="M 0 0 
" style="fill:none;stroke:#424242;stroke-linecap:round;stroke-width:3.15;"/>
   </g>
   <g id="line2d_36">
    <path clip-path="url(#p9198906603)" d="M 0 0 
" style="fill:none;stroke:#424242;stroke-linecap:round;stroke-width:3.15;"/>
   </g>
   <g id="line2d_37">
    <path clip-path="url(#p9198906603)" d="M 0 0 
" style="fill:none;stroke:#424242;stroke-linecap:round;stroke-width:3.15;"/>
   </g>
   <g id="line2d_38">
    <path clip-path="url(#p9198906603)" d="M 0 0 
" style="fill:none;stroke:#424242;stroke-linecap:round;stroke-width:3.15;"/>
   </g>
   <g id="line2d_39">
    <path clip-path="url(#p9198906603)" d="M 0 0 
" style="fill:none;stroke:#424242;stroke-linecap:round;stroke-width:3.15;"/>
   </g>
   <g id="line2d_40">
    <path clip-path="url(#p9198906603)" d="M 0 0 
" style="fill:none;stroke:#424242;stroke-linecap:round;stroke-width:3.15;"/>
   </g>
   <g id="line2d_41">
    <path clip-path="url(#p9198906603)" d="M 0 0 
" style="fill:none;stroke:#424242;stroke-linecap:round;stroke-width:3.15;"/>
   </g>
   <g id="line2d_42">
    <path clip-path="url(#p9198906603)" d="M 0 0 
" style="fill:none;stroke:#424242;stroke-linecap:round;stroke-width:3.15;"/>
   </g>
   <g id="line2d_43">
    <path clip-path="url(#p9198906603)" d="M 0 0 
" style="fill:none;stroke:#424242;stroke-linecap:round;stroke-width:3.15;"/>
   </g>
   <g id="line2d_44">
    <path clip-path="url(#p9198906603)" d="M 0 0 
" style="fill:none;stroke:#424242;stroke-linecap:round;stroke-width:3.15;"/>
   </g>
   <g id="line2d_45">
    <path clip-path="url(#p9198906603)" d="M 0 0 
" style="fill:none;stroke:#424242;stroke-linecap:round;stroke-width:3.15;"/>
   </g>
   <g id="line2d_46">
    <path clip-path="url(#p9198906603)" d="M 0 0 
" style="fill:none;stroke:#424242;stroke-linecap:round;stroke-width:3.15;"/>
   </g>
   <g id="line2d_47">
    <path clip-path="url(#p9198906603)" d="M 0 0 
" style="fill:none;stroke:#424242;stroke-linecap:round;stroke-width:3.15;"/>
   </g>
   <g id="line2d_48">
    <path clip-path="url(#p9198906603)" d="M 0 0 
" style="fill:none;stroke:#424242;stroke-linecap:round;stroke-width:3.15;"/>
   </g>
   <g id="line2d_49">
    <path clip-path="url(#p9198906603)" d="M 0 0 
" style="fill:none;stroke:#424242;stroke-linecap:round;stroke-width:3.15;"/>
   </g>
   <g id="line2d_50">
    <path clip-path="url(#p9198906603)" d="M 0 0 
" style="fill:none;stroke:#424242;stroke-linecap:round;stroke-width:3.15;"/>
   </g>
   <g id="line2d_51">
    <path clip-path="url(#p9198906603)" d="M 0 0 
" style="fill:none;stroke:#424242;stroke-linecap:round;stroke-width:3.15;"/>
   </g>
   <g id="line2d_52">
    <path clip-path="url(#p9198906603)" d="M 0 0 
" style="fill:none;stroke:#424242;stroke-linecap:round;stroke-width:3.15;"/>
   </g>
   <g id="line2d_53">
    <path clip-path="url(#p9198906603)" d="M 0 0 
" style="fill:none;stroke:#424242;stroke-linecap:round;stroke-width:3.15;"/>
   </g>
   <g id="line2d_54">
    <path clip-path="url(#p9198906603)" d="M 0 0 
" style="fill:none;stroke:#424242;stroke-linecap:round;stroke-width:3.15;"/>
   </g>
   <g id="line2d_55">
    <path clip-path="url(#p9198906603)" d="M 0 0 
" style="fill:none;stroke:#424242;stroke-linecap:round;stroke-width:3.15;"/>
   </g>
   <g id="line2d_56">
    <path clip-path="url(#p9198906603)" d="M 0 0 
" style="fill:none;stroke:#424242;stroke-linecap:round;stroke-width:3.15;"/>
   </g>
   <g id="line2d_57">
    <path clip-path="url(#p9198906603)" d="M 0 0 
" style="fill:none;stroke:#424242;stroke-linecap:round;stroke-width:3.15;"/>
   </g>
   <g id="line2d_58">
    <path clip-path="url(#p9198906603)" d="M 0 0 
" style="fill:none;stroke:#424242;stroke-linecap:round;stroke-width:3.15;"/>
   </g>
   <g id="line2d_59">
    <path clip-path="url(#p9198906603)" d="M 0 0 
" style="fill:none;stroke:#424242;stroke-linecap:round;stroke-width:3.15;"/>
   </g>
   <g id="line2d_60">
    <path clip-path="url(#p9198906603)" d="M 0 0 
" style="fill:none;stroke:#424242;stroke-linecap:round;stroke-width:3.15;"/>
   </g>
   <g id="line2d_61">
    <path clip-path="url(#p9198906603)" d="M 0 0 
" style="fill:none;stroke:#424242;stroke-linecap:round;stroke-width:3.15;"/>
   </g>
   <g id="line2d_62">
    <path clip-path="url(#p9198906603)" d="M 0 0 
" style="fill:none;stroke:#424242;stroke-linecap:round;stroke-width:3.15;"/>
   </g>
   <g id="line2d_63">
    <path clip-path="url(#p9198906603)" d="M 0 0 
" style="fill:none;stroke:#424242;stroke-linecap:round;stroke-width:3.15;"/>
   </g>
   <g id="line2d_64">
    <path clip-path="url(#p9198906603)" d="M 0 0 
" style="fill:none;stroke:#424242;stroke-linecap:round;stroke-width:3.15;"/>
   </g>
   <g id="line2d_65">
    <path clip-path="url(#p9198906603)" d="M 0 0 
" style="fill:none;stroke:#424242;stroke-linecap:round;stroke-width:3.15;"/>
   </g>
   <g id="line2d_66">
    <path clip-path="url(#p9198906603)" d="M 0 0 
" style="fill:none;stroke:#424242;stroke-linecap:round;stroke-width:3.15;"/>
   </g>
   <g id="line2d_67">
    <path clip-path="url(#p9198906603)" d="M 0 0 
" style="fill:none;stroke:#424242;stroke-linecap:round;stroke-width:3.15;"/>
   </g>
   <g id="line2d_68">
    <path clip-path="url(#p9198906603)" d="M 0 0 
" style="fill:none;stroke:#424242;stroke-linecap:round;stroke-width:3.15;"/>
   </g>
   <g id="line2d_69">
    <path clip-path="url(#p9198906603)" d="M 0 0 
" style="fill:none;stroke:#424242;stroke-linecap:round;stroke-width:3.15;"/>
   </g>
   <g id="line2d_70">
    <path clip-path="url(#p9198906603)" d="M 0 0 
" style="fill:none;stroke:#424242;stroke-linecap:round;stroke-width:3.15;"/>
   </g>
   <g id="line2d_71">
    <path clip-path="url(#p9198906603)" d="M 0 0 
" style="fill:none;stroke:#424242;stroke-linecap:round;stroke-width:3.15;"/>
   </g>
   <g id="line2d_72">
    <path clip-path="url(#p9198906603)" d="M 0 0 
" style="fill:none;stroke:#424242;stroke-linecap:round;stroke-width:3.15;"/>
   </g>
   <g id="line2d_73">
    <path clip-path="url(#p9198906603)" d="M 0 0 
" style="fill:none;stroke:#424242;stroke-linecap:round;stroke-width:3.15;"/>
   </g>
   <g id="line2d_74">
    <path clip-path="url(#p9198906603)" d="M 0 0 
" style="fill:none;stroke:#424242;stroke-linecap:round;stroke-width:3.15;"/>
   </g>
   <g id="line2d_75">
    <path clip-path="url(#p9198906603)" d="M 0 0 
" style="fill:none;stroke:#424242;stroke-linecap:round;stroke-width:3.15;"/>
   </g>
   <g id="line2d_76">
    <path clip-path="url(#p9198906603)" d="M 0 0 
" style="fill:none;stroke:#424242;stroke-linecap:round;stroke-width:3.15;"/>
   </g>
   <g id="line2d_77">
    <path clip-path="url(#p9198906603)" d="M 0 0 
" style="fill:none;stroke:#424242;stroke-linecap:round;stroke-width:3.15;"/>
   </g>
   <g id="line2d_78">
    <path clip-path="url(#p9198906603)" d="M 0 0 
" style="fill:none;stroke:#424242;stroke-linecap:round;stroke-width:3.15;"/>
   </g>
   <g id="line2d_79">
    <path clip-path="url(#p9198906603)" d="M 0 0 
" style="fill:none;stroke:#424242;stroke-linecap:round;stroke-width:3.15;"/>
   </g>
   <g id="line2d_80">
    <path clip-path="url(#p9198906603)" d="M 0 0 
" style="fill:none;stroke:#424242;stroke-linecap:round;stroke-width:3.15;"/>
   </g>
   <g id="line2d_81">
    <path clip-path="url(#p9198906603)" d="M 0 0 
" style="fill:none;stroke:#424242;stroke-linecap:round;stroke-width:3.15;"/>
   </g>
   <g id="line2d_82">
    <path clip-path="url(#p9198906603)" d="M 0 0 
" style="fill:none;stroke:#424242;stroke-linecap:round;stroke-width:3.15;"/>
   </g>
   <g id="line2d_83">
    <path clip-path="url(#p9198906603)" d="M 0 0 
" style="fill:none;stroke:#424242;stroke-linecap:round;stroke-width:3.15;"/>
   </g>
   <g id="line2d_84">
    <path clip-path="url(#p9198906603)" d="M 0 0 
" style="fill:none;stroke:#424242;stroke-linecap:round;stroke-width:3.15;"/>
   </g>
   <g id="line2d_85">
    <path clip-path="url(#p9198906603)" d="M 0 0 
" style="fill:none;stroke:#424242;stroke-linecap:round;stroke-width:3.15;"/>
   </g>
   <g id="line2d_86">
    <path clip-path="url(#p9198906603)" d="M 0 0 
" style="fill:none;stroke:#424242;stroke-linecap:round;stroke-width:3.15;"/>
   </g>
   <g id="line2d_87">
    <path clip-path="url(#p9198906603)" d="M 0 0 
" style="fill:none;stroke:#424242;stroke-linecap:round;stroke-width:3.15;"/>
   </g>
   <g id="line2d_88">
    <path clip-path="url(#p9198906603)" d="M 0 0 
" style="fill:none;stroke:#424242;stroke-linecap:round;stroke-width:3.15;"/>
   </g>
   <g id="line2d_89">
    <path clip-path="url(#p9198906603)" d="M 0 0 
" style="fill:none;stroke:#424242;stroke-linecap:round;stroke-width:3.15;"/>
   </g>
   <g id="line2d_90">
    <path clip-path="url(#p9198906603)" d="M 0 0 
" style="fill:none;stroke:#424242;stroke-linecap:round;stroke-width:3.15;"/>
   </g>
   <g id="line2d_91">
    <path clip-path="url(#p9198906603)" d="M 0 0 
" style="fill:none;stroke:#424242;stroke-linecap:round;stroke-width:3.15;"/>
   </g>
   <g id="line2d_92">
    <path clip-path="url(#p9198906603)" d="M 0 0 
" style="fill:none;stroke:#424242;stroke-linecap:round;stroke-width:3.15;"/>
   </g>
   <g id="line2d_93">
    <path clip-path="url(#p9198906603)" d="M 0 0 
" style="fill:none;stroke:#424242;stroke-linecap:round;stroke-width:3.15;"/>
   </g>
   <g id="line2d_94">
    <path clip-path="url(#p9198906603)" d="M 0 0 
" style="fill:none;stroke:#424242;stroke-linecap:round;stroke-width:3.15;"/>
   </g>
   <g id="line2d_95">
    <path clip-path="url(#p9198906603)" d="M 0 0 
" style="fill:none;stroke:#424242;stroke-linecap:round;stroke-width:3.15;"/>
   </g>
   <g id="line2d_96">
    <path clip-path="url(#p9198906603)" d="M 0 0 
" style="fill:none;stroke:#424242;stroke-linecap:round;stroke-width:3.15;"/>
   </g>
   <g id="line2d_97">
    <path clip-path="url(#p9198906603)" d="M 0 0 
" style="fill:none;stroke:#424242;stroke-linecap:round;stroke-width:3.15;"/>
   </g>
   <g id="line2d_98">
    <path clip-path="url(#p9198906603)" d="M 0 0 
" style="fill:none;stroke:#424242;stroke-linecap:round;stroke-width:3.15;"/>
   </g>
   <g id="line2d_99">
    <path clip-path="url(#p9198906603)" d="M 0 0 
" style="fill:none;stroke:#424242;stroke-linecap:round;stroke-width:3.15;"/>
   </g>
   <g id="line2d_100">
    <path clip-path="url(#p9198906603)" d="M 0 0 
" style="fill:none;stroke:#424242;stroke-linecap:round;stroke-width:3.15;"/>
   </g>
   <g id="line2d_101">
    <path clip-path="url(#p9198906603)" d="M 0 0 
" style="fill:none;stroke:#424242;stroke-linecap:round;stroke-width:3.15;"/>
   </g>
   <g id="line2d_102">
    <path clip-path="url(#p9198906603)" d="M 0 0 
" style="fill:none;stroke:#424242;stroke-linecap:round;stroke-width:3.15;"/>
   </g>
   <g id="line2d_103">
    <path clip-path="url(#p9198906603)" d="M 0 0 
" style="fill:none;stroke:#424242;stroke-linecap:round;stroke-width:3.15;"/>
   </g>
   <g id="line2d_104">
    <path clip-path="url(#p9198906603)" d="M 0 0 
" style="fill:none;stroke:#424242;stroke-linecap:round;stroke-width:3.15;"/>
   </g>
   <g id="line2d_105">
    <path clip-path="url(#p9198906603)" d="M 0 0 
" style="fill:none;stroke:#424242;stroke-linecap:round;stroke-width:3.15;"/>
   </g>
   <g id="line2d_106">
    <path clip-path="url(#p9198906603)" d="M 0 0 
" style="fill:none;stroke:#424242;stroke-linecap:round;stroke-width:3.15;"/>
   </g>
   <g id="line2d_107">
    <path clip-path="url(#p9198906603)" d="M 0 0 
" style="fill:none;stroke:#424242;stroke-linecap:round;stroke-width:3.15;"/>
   </g>
   <g id="line2d_108">
    <path clip-path="url(#p9198906603)" d="M 0 0 
" style="fill:none;stroke:#424242;stroke-linecap:round;stroke-width:3.15;"/>
   </g>
   <g id="line2d_109">
    <path clip-path="url(#p9198906603)" d="M 0 0 
" style="fill:none;stroke:#424242;stroke-linecap:round;stroke-width:3.15;"/>
   </g>
   <g id="line2d_110">
    <path clip-path="url(#p9198906603)" d="M 0 0 
" style="fill:none;stroke:#424242;stroke-linecap:round;stroke-width:3.15;"/>
   </g>
   <g id="line2d_111">
    <path clip-path="url(#p9198906603)" d="M 176.85 504 
L 176.85 69.12 
" style="fill:none;stroke:#808080;stroke-dasharray:1.85,0.8;stroke-dashoffset:0;stroke-width:0.5;"/>
   </g>
   <g id="line2d_112">
    <path clip-path="url(#p9198906603)" d="M 218.7 504 
L 218.7 69.12 
" style="fill:none;stroke:#808080;stroke-dasharray:1.85,0.8;stroke-dashoffset:0;stroke-width:0.5;"/>
   </g>
   <g id="line2d_113">
    <path clip-path="url(#p9198906603)" d="M 260.55 504 
L 260.55 69.12 
" style="fill:none;stroke:#808080;stroke-dasharray:1.85,0.8;stroke-dashoffset:0;stroke-width:0.5;"/>
   </g>
   <g id="line2d_114">
    <path clip-path="url(#p9198906603)" d="M 302.4 504 
L 302.4 69.12 
" style="fill:none;stroke:#808080;stroke-dasharray:1.85,0.8;stroke-dashoffset:0;stroke-width:0.5;"/>
   </g>
   <g id="line2d_115">
    <path clip-path="url(#p9198906603)" d="M 344.25 504 
L 344.25 69.12 
" style="fill:none;stroke:#808080;stroke-dasharray:1.85,0.8;stroke-dashoffset:0;stroke-width:0.5;"/>
   </g>
   <g id="line2d_116">
    <path clip-path="url(#p9198906603)" d="M 386.1 504 
L 386.1 69.12 
" style="fill:none;stroke:#808080;stroke-dasharray:1.85,0.8;stroke-dashoffset:0;stroke-width:0.5;"/>
   </g>
   <g id="line2d_117">
    <path clip-path="url(#p9198906603)" d="M 427.95 504 
L 427.95 69.12 
" style="fill:none;stroke:#808080;stroke-dasharray:1.85,0.8;stroke-dashoffset:0;stroke-width:0.5;"/>
   </g>
   <g id="line2d_118">
    <path clip-path="url(#p9198906603)" d="M 469.8 504 
L 469.8 69.12 
" style="fill:none;stroke:#808080;stroke-dasharray:1.85,0.8;stroke-dashoffset:0;stroke-width:0.5;"/>
   </g>
   <g id="line2d_119">
    <path clip-path="url(#p9198906603)" d="M 511.65 504 
L 511.65 69.12 
" style="fill:none;stroke:#808080;stroke-dasharray:1.85,0.8;stroke-dashoffset:0;stroke-width:0.5;"/>
   </g>
   <g id="line2d_120">
    <path clip-path="url(#p9198906603)" d="M 553.5 504 
L 553.5 69.12 
" style="fill:none;stroke:#808080;stroke-dasharray:1.85,0.8;stroke-dashoffset:0;stroke-width:0.5;"/>
   </g>
   <g id="line2d_121">
    <path clip-path="url(#p9198906603)" d="M 595.35 504 
L 595.35 69.12 
" style="fill:none;stroke:#808080;stroke-dasharray:1.85,0.8;stroke-dashoffset:0;stroke-width:0.5;"/>
   </g>
   <g id="line2d_122">
    <path clip-path="url(#p9198906603)" d="M 637.2 504 
L 637.2 69.12 
" style="fill:none;stroke:#808080;stroke-dasharray:1.85,0.8;stroke-dashoffset:0;stroke-width:0.5;"/>
   </g>
   <g id="line2d_123">
    <path clip-path="url(#p9198906603)" d="M 679.05 504 
L 679.05 69.12 
" style="fill:none;stroke:#808080;stroke-dasharray:1.85,0.8;stroke-dashoffset:0;stroke-width:0.5;"/>
   </g>
   <g id="line2d_124">
    <path clip-path="url(#p9198906603)" d="M 720.9 504 
L 720.9 69.12 
" style="fill:none;stroke:#808080;stroke-dasharray:1.85,0.8;stroke-dashoffset:0;stroke-width:0.5;"/>
   </g>
   <g id="line2d_125">
    <path clip-path="url(#p9198906603)" d="M 762.75 504 
L 762.75 69.12 
" style="fill:none;stroke:#808080;stroke-dasharray:1.85,0.8;stroke-dashoffset:0;stroke-width:0.5;"/>
   </g>
   <g id="line2d_126">
    <path clip-path="url(#p9198906603)" d="M 804.6 504 
L 804.6 69.12 
" style="fill:none;stroke:#808080;stroke-dasharray:1.85,0.8;stroke-dashoffset:0;stroke-width:0.5;"/>
   </g>
   <g id="line2d_127">
    <path clip-path="url(#p9198906603)" d="M 846.45 504 
L 846.45 69.12 
" style="fill:none;stroke:#808080;stroke-dasharray:1.85,0.8;stroke-dashoffset:0;stroke-width:0.5;"/>
   </g>
   <g id="line2d_128">
    <path clip-path="url(#p9198906603)" d="M 888.3 504 
L 888.3 69.12 
" style="fill:none;stroke:#808080;stroke-dasharray:1.85,0.8;stroke-dashoffset:0;stroke-width:0.5;"/>
   </g>
   <g id="line2d_129">
    <path clip-path="url(#p9198906603)" d="M 930.15 504 
L 930.15 69.12 
" style="fill:none;stroke:#808080;stroke-dasharray:1.85,0.8;stroke-dashoffset:0;stroke-width:0.5;"/>
   </g>
   <g id="line2d_130">
    <path clip-path="url(#p9198906603)" d="M 972 504 
L 972 69.12 
" style="fill:none;stroke:#808080;stroke-dasharray:1.85,0.8;stroke-dashoffset:0;stroke-width:0.5;"/>
   </g>
   <g id="patch_83">
    <path d="M 135 504 
L 135 69.12 
" style="fill:none;stroke:#ffffff;stroke-linecap:square;stroke-linejoin:miter;"/>
   </g>
   <g id="patch_84">
    <path d="M 972 504 
L 972 69.12 
" style="fill:none;stroke:#ffffff;stroke-linecap:square;stroke-linejoin:miter;"/>
   </g>
   <g id="patch_85">
    <path d="M 135 504 
L 972 504 
" style="fill:none;stroke:#ffffff;stroke-linecap:square;stroke-linejoin:miter;"/>
   </g>
   <g id="patch_86">
    <path d="M 135 69.12 
L 972 69.12 
" style="fill:none;stroke:#ffffff;stroke-linecap:square;stroke-linejoin:miter;"/>
   </g>
   <g id="text_27">
    <!-- * -->
    <defs>
     <path d="M 3.125 58.453125 
L 5.375 65.375 
Q 13.140625 62.640625 16.65625 60.640625 
Q 15.71875 69.484375 15.671875 72.796875 
L 22.75 72.796875 
Q 22.609375 67.96875 21.625 60.6875 
Q 26.65625 63.234375 33.15625 65.375 
L 35.40625 58.453125 
Q 29.203125 56.390625 23.25 55.71875 
Q 26.21875 53.125 31.640625 46.484375 
L 25.78125 42.328125 
Q 22.953125 46.1875 19.09375 52.828125 
Q 15.484375 45.953125 12.75 42.328125 
L 6.984375 46.484375 
Q 12.640625 53.46875 15.09375 55.71875 
Q 8.796875 56.9375 3.125 58.453125 
z
" id="ArialMT-42"/>
    </defs>
    <g transform="translate(140.241609 429.240496)scale(0.15 -0.15)">
     <use xlink:href="#ArialMT-42"/>
    </g>
   </g>
   <g id="text_28">
    <!-- * -->
    <g transform="translate(223.941609 429.240496)scale(0.15 -0.15)">
     <use xlink:href="#ArialMT-42"/>
    </g>
   </g>
   <g id="text_29">
    <!-- * -->
    <g transform="translate(265.791609 429.240496)scale(0.15 -0.15)">
     <use xlink:href="#ArialMT-42"/>
    </g>
   </g>
   <g id="text_30">
    <!-- * -->
    <g transform="translate(391.341609 261.780013)scale(0.15 -0.15)">
     <use xlink:href="#ArialMT-42"/>
    </g>
   </g>
   <g id="text_31">
    <!-- * -->
    <g transform="translate(433.191609 429.240496)scale(0.15 -0.15)">
     <use xlink:href="#ArialMT-42"/>
    </g>
   </g>
   <g id="text_32">
    <!-- * -->
    <g transform="translate(475.041609 429.240496)scale(0.15 -0.15)">
     <use xlink:href="#ArialMT-42"/>
    </g>
   </g>
   <g id="text_33">
    <!-- * -->
    <g transform="translate(600.591609 429.240496)scale(0.15 -0.15)">
     <use xlink:href="#ArialMT-42"/>
    </g>
   </g>
   <g id="text_34">
    <!-- * -->
    <g transform="translate(642.441609 336.659248)scale(0.15 -0.15)">
     <use xlink:href="#ArialMT-42"/>
    </g>
   </g>
   <g id="text_35">
    <!-- * -->
    <g transform="translate(726.141609 429.240496)scale(0.15 -0.15)">
     <use xlink:href="#ArialMT-42"/>
    </g>
   </g>
   <g id="text_36">
    <!-- * -->
    <g transform="translate(767.991609 429.240496)scale(0.15 -0.15)">
     <use xlink:href="#ArialMT-42"/>
    </g>
   </g>
   <g id="text_37">
    <!-- * -->
    <g transform="translate(809.841609 429.240496)scale(0.15 -0.15)">
     <use xlink:href="#ArialMT-42"/>
    </g>
   </g>
   <g id="text_38">
    <!-- * -->
    <g transform="translate(851.691609 429.240496)scale(0.15 -0.15)">
     <use xlink:href="#ArialMT-42"/>
    </g>
   </g>
   <g id="text_39">
    <!-- * -->
    <g transform="translate(893.541609 233.489861)scale(0.15 -0.15)">
     <use xlink:href="#ArialMT-42"/>
    </g>
   </g>
   <g id="text_40">
    <!-- * -->
    <g transform="translate(935.391609 255.36962)scale(0.15 -0.15)">
     <use xlink:href="#ArialMT-42"/>
    </g>
   </g>
   <g id="text_41">
    <!-- * -->
    <g transform="translate(399.711609 85.906023)scale(0.15 -0.15)">
     <use xlink:href="#ArialMT-42"/>
    </g>
   </g>
   <g id="text_42">
    <!-- * -->
    <g transform="translate(441.561609 429.240496)scale(0.15 -0.15)">
     <use xlink:href="#ArialMT-42"/>
    </g>
   </g>
   <g id="text_43">
    <!-- * -->
    <g transform="translate(483.411609 429.240496)scale(0.15 -0.15)">
     <use xlink:href="#ArialMT-42"/>
    </g>
   </g>
   <g id="text_44">
    <!-- * -->
    <g transform="translate(525.261609 387.164206)scale(0.15 -0.15)">
     <use xlink:href="#ArialMT-42"/>
    </g>
   </g>
   <g id="text_45">
    <!-- * -->
    <g transform="translate(567.111609 429.240496)scale(0.15 -0.15)">
     <use xlink:href="#ArialMT-42"/>
    </g>
   </g>
   <g id="text_46">
    <!-- * -->
    <g transform="translate(650.811609 310.95113)scale(0.15 -0.15)">
     <use xlink:href="#ArialMT-42"/>
    </g>
   </g>
   <g id="text_47">
    <!-- * -->
    <g transform="translate(734.511609 429.240496)scale(0.15 -0.15)">
     <use xlink:href="#ArialMT-42"/>
    </g>
   </g>
   <g id="text_48">
    <!-- * -->
    <g transform="translate(818.211609 429.240496)scale(0.15 -0.15)">
     <use xlink:href="#ArialMT-42"/>
    </g>
   </g>
   <g id="text_49">
    <!-- * -->
    <g transform="translate(860.061609 429.240496)scale(0.15 -0.15)">
     <use xlink:href="#ArialMT-42"/>
    </g>
   </g>
   <g id="text_50">
    <!-- * -->
    <g transform="translate(366.650109 429.240496)scale(0.15 -0.15)">
     <use xlink:href="#ArialMT-42"/>
    </g>
   </g>
   <g id="text_51">
    <!-- * -->
    <g transform="translate(534.050109 401.4786)scale(0.15 -0.15)">
     <use xlink:href="#ArialMT-42"/>
    </g>
   </g>
   <g id="text_52">
    <!-- * -->
    <g transform="translate(659.600109 359.904434)scale(0.15 -0.15)">
     <use xlink:href="#ArialMT-42"/>
    </g>
   </g>
   <g id="text_53">
    <!-- * -->
    <g transform="translate(743.300109 429.240496)scale(0.15 -0.15)">
     <use xlink:href="#ArialMT-42"/>
    </g>
   </g>
   <g id="text_54">
    <!-- * -->
    <g transform="translate(952.550109 429.240496)scale(0.15 -0.15)">
     <use xlink:href="#ArialMT-42"/>
    </g>
   </g>
   <g id="legend_1">
    <g id="patch_87">
     <path d="M 862.148125 159.697812 
L 962.2 159.697812 
Q 965 159.697812 965 156.897812 
L 965 78.92 
Q 965 76.12 962.2 76.12 
L 862.148125 76.12 
Q 859.348125 76.12 859.348125 78.92 
L 859.348125 156.897812 
Q 859.348125 159.697812 862.148125 159.697812 
z
" style="fill:#e5e5e5;opacity:0.8;stroke:#cccccc;stroke-linejoin:miter;stroke-width:0.5;"/>
    </g>
    <g id="patch_88">
     <path d="M 864.948125 91.740937 
L 892.948125 91.740937 
L 892.948125 81.940937 
L 864.948125 81.940937 
z
" style="fill:#abc9ea;stroke:#333333;stroke-linejoin:miter;stroke-width:0.5;"/>
    </g>
    <g id="text_55">
     <!-- FRS -->
     <g style="fill:#262626;" transform="translate(904.148125 91.740937)scale(0.14 -0.14)">
      <use xlink:href="#ArialMT-70"/>
      <use x="61.083984" xlink:href="#ArialMT-82"/>
      <use x="133.300781" xlink:href="#ArialMT-83"/>
     </g>
    </g>
    <g id="patch_89">
     <path d="M 864.948125 111.544375 
L 892.948125 111.544375 
L 892.948125 101.744375 
L 864.948125 101.744375 
z
" style="fill:#efb792;stroke:#333333;stroke-linejoin:miter;stroke-width:0.5;"/>
    </g>
    <g id="text_56">
     <!-- Chelator -->
     <defs>
      <path d="M 6.59375 0 
L 6.59375 71.578125 
L 15.375 71.578125 
L 15.375 45.90625 
Q 21.53125 53.03125 30.90625 53.03125 
Q 36.671875 53.03125 40.921875 50.75 
Q 45.171875 48.484375 47 44.484375 
Q 48.828125 40.484375 48.828125 32.859375 
L 48.828125 0 
L 40.046875 0 
L 40.046875 32.859375 
Q 40.046875 39.453125 37.1875 42.453125 
Q 34.328125 45.453125 29.109375 45.453125 
Q 25.203125 45.453125 21.75 43.421875 
Q 18.3125 41.40625 16.84375 37.9375 
Q 15.375 34.46875 15.375 28.375 
L 15.375 0 
z
" id="ArialMT-104"/>
     </defs>
     <g style="fill:#262626;" transform="translate(904.148125 111.544375)scale(0.14 -0.14)">
      <use xlink:href="#ArialMT-67"/>
      <use x="72.216797" xlink:href="#ArialMT-104"/>
      <use x="127.832031" xlink:href="#ArialMT-101"/>
      <use x="183.447266" xlink:href="#ArialMT-108"/>
      <use x="205.664062" xlink:href="#ArialMT-97"/>
      <use x="261.279297" xlink:href="#ArialMT-116"/>
      <use x="289.0625" xlink:href="#ArialMT-111"/>
      <use x="344.677734" xlink:href="#ArialMT-114"/>
     </g>
    </g>
    <g id="patch_90">
     <path d="M 864.948125 131.347812 
L 892.948125 131.347812 
L 892.948125 121.547812 
L 864.948125 121.547812 
z
" style="fill:#98daa7;stroke:#333333;stroke-linejoin:miter;stroke-width:0.5;"/>
    </g>
    <g id="text_57">
     <!-- Negative -->
     <defs>
      <path d="M 4.984375 -4.296875 
L 13.53125 -5.5625 
Q 14.0625 -9.515625 16.5 -11.328125 
Q 19.78125 -13.765625 25.4375 -13.765625 
Q 31.546875 -13.765625 34.859375 -11.328125 
Q 38.1875 -8.890625 39.359375 -4.5 
Q 40.046875 -1.8125 39.984375 6.78125 
Q 34.234375 0 25.640625 0 
Q 14.9375 0 9.078125 7.71875 
Q 3.21875 15.4375 3.21875 26.21875 
Q 3.21875 33.640625 5.90625 39.90625 
Q 8.59375 46.1875 13.6875 49.609375 
Q 18.796875 53.03125 25.6875 53.03125 
Q 34.859375 53.03125 40.828125 45.609375 
L 40.828125 51.859375 
L 48.921875 51.859375 
L 48.921875 7.03125 
Q 48.921875 -5.078125 46.453125 -10.125 
Q 44 -15.1875 38.640625 -18.109375 
Q 33.296875 -21.046875 25.484375 -21.046875 
Q 16.21875 -21.046875 10.5 -16.875 
Q 4.78125 -12.703125 4.984375 -4.296875 
z
M 12.25 26.859375 
Q 12.25 16.65625 16.296875 11.96875 
Q 20.359375 7.28125 26.46875 7.28125 
Q 32.515625 7.28125 36.609375 11.9375 
Q 40.71875 16.609375 40.71875 26.5625 
Q 40.71875 36.078125 36.5 40.90625 
Q 32.28125 45.75 26.3125 45.75 
Q 20.453125 45.75 16.34375 40.984375 
Q 12.25 36.234375 12.25 26.859375 
z
" id="ArialMT-103"/>
      <path d="M 21 0 
L 1.265625 51.859375 
L 10.546875 51.859375 
L 21.6875 20.796875 
Q 23.484375 15.765625 25 10.359375 
Q 26.171875 14.453125 28.265625 20.21875 
L 39.796875 51.859375 
L 48.828125 51.859375 
L 29.203125 0 
z
" id="ArialMT-118"/>
     </defs>
     <g style="fill:#262626;" transform="translate(904.148125 131.347812)scale(0.14 -0.14)">
      <use xlink:href="#ArialMT-78"/>
      <use x="72.216797" xlink:href="#ArialMT-101"/>
      <use x="127.832031" xlink:href="#ArialMT-103"/>
      <use x="183.447266" xlink:href="#ArialMT-97"/>
      <use x="239.0625" xlink:href="#ArialMT-116"/>
      <use x="266.845703" xlink:href="#ArialMT-105"/>
      <use x="289.0625" xlink:href="#ArialMT-118"/>
      <use x="339.0625" xlink:href="#ArialMT-101"/>
     </g>
    </g>
    <g id="patch_91">
     <path d="M 864.948125 151.315313 
L 892.948125 151.315313 
L 892.948125 141.515312 
L 864.948125 141.515312 
z
" style="fill:#f2aba8;stroke:#333333;stroke-linejoin:miter;stroke-width:0.5;"/>
    </g>
    <g id="text_58">
     <!-- Random -->
     <g style="fill:#262626;" transform="translate(904.148125 151.315313)scale(0.14 -0.14)">
      <use xlink:href="#ArialMT-82"/>
      <use x="72.216797" xlink:href="#ArialMT-97"/>
      <use x="127.832031" xlink:href="#ArialMT-110"/>
      <use x="183.447266" xlink:href="#ArialMT-100"/>
      <use x="239.0625" xlink:href="#ArialMT-111"/>
      <use x="294.677734" xlink:href="#ArialMT-109"/>
     </g>
    </g>
   </g>
  </g>
 </g>
 <defs>
  <clipPath id="p9198906603">
   <rect height="434.88" width="837" x="135" y="69.12"/>
  </clipPath>
 </defs>
</svg>
